<svg xmlns="http://www.w3.org/2000/svg" viewBox="0 0 142.6 131.82"><defs><style>.cls-1,.cls-5,.cls-6,.cls-7,.cls-9{fill:none;stroke-linecap:round;}.cls-1,.cls-7,.cls-9{stroke:#000;}.cls-1,.cls-6{stroke-linejoin:round;}.cls-1,.cls-5,.cls-6,.cls-7{stroke-width:2px;}.cls-2{fill:#ebeced;}.cls-3{fill:#1869ff;}.cls-4{fill:#fff;}.cls-5,.cls-6{stroke:#1d1d1b;}.cls-5,.cls-7,.cls-9{stroke-miterlimit:10;}.cls-8{opacity:0.8;}.cls-9{stroke-width:1.5px;stroke-dasharray:5;}</style></defs><title>icon-design</title><g id="Layer_2" data-name="Layer 2"><g id="ар_1" data-name="ар 1"><line class="cls-1" x1="17.34" y1="126.98" x2="114.89" y2="126.98"/><line class="cls-1" x1="30.8" y1="130.82" x2="44.69" y2="130.82"/><line class="cls-1" x1="49.51" y1="130.82" x2="54.22" y2="130.82"/><line class="cls-1" x1="66.32" y1="130.82" x2="81.89" y2="130.82"/><line class="cls-1" x1="85.92" y1="130.82" x2="90.52" y2="130.82"/><line class="cls-1" x1="96.24" y1="130.82" x2="130.18" y2="130.82"/><path class="cls-2" d="M95.81,68.33l-1.58-1a36,36,0,0,0,2.23-12.09l1.94-.38a7.51,7.51,0,0,0-2.85-14.74l-2,.4A36.33,36.33,0,0,0,86,29.44l1.21-1.81a7.51,7.51,0,0,0-12.51-8.31L73.47,21.2a36.16,36.16,0,0,0-8-2.1,35.33,35.33,0,0,0-5-.35L60,16.51A7.51,7.51,0,0,0,45.32,19.6l.47,2.23a36.14,36.14,0,0,0-10.94,7.5L33,28.13A7.53,7.53,0,0,0,22.6,30.41h0a7.53,7.53,0,0,0,2.28,10.37l1.81,1.15a36.46,36.46,0,0,0-2,7.78,39.3,39.3,0,0,0-.34,4.16l-2,.39A7.51,7.51,0,1,0,25.15,69l1.9-.37a36.25,36.25,0,0,0,7.44,11.31l-1,1.55A7.51,7.51,0,0,0,46,89.79l1-1.48a35.72,35.72,0,0,0,8.31,2.23,36.16,36.16,0,0,0,5,.36l.36,1.7a7.51,7.51,0,0,0,14.69-3.09L75,87.8A36,36,0,0,0,86.21,80l1.51,1a7.51,7.51,0,1,0,8.09-12.65ZM58,71.23A16.57,16.57,0,1,1,76.79,57.17,16.57,16.57,0,0,1,58,71.23Z"/><polygon class="cls-3" points="98.5 24.58 93.75 30.07 98.5 36.71 81.32 36.71 81.32 24.58 98.5 24.58"/><path class="cls-4" d="M68.32,111.44c.12-.82,1.94-7.93,9.06-6.79-.43-2.11,2.75-13.8,13.93-14.72,10.55-.88,15.31,5.73,16.87,8.55l0,.09.26.5,0,.09c.06.11.1.2.14.28A11.56,11.56,0,0,1,123,107c2,6.71-.42,14-15,14l-25.18-.07C73.56,120.74,67.41,117.86,68.32,111.44Z"/><path class="cls-4" d="M81.68,79.54a3.8,3.8,0,0,1-3.08-1.83,12,12,0,0,0-2.38-2.86,3.92,3.92,0,0,0-3.75-.41c-1.77.73-2.72,2.61-3.84,4.14a14.77,14.77,0,0,1-7.34,5.29l-.09-.05L81.32,46.37,100.74,84a7.38,7.38,0,0,1-5.28-2,55.18,55.18,0,0,0-4.54-3.84c-1.66-1.08-3.86-1.65-5.62-.75C84,78.12,83.08,79.43,81.68,79.54Z"/><polyline class="cls-5" points="45.89 112.35 61.2 83.82 81.32 46.38"/><path class="cls-6" d="M108.18,98.48c-1.56-2.82-6.32-9.43-16.87-8.55-11.18.92-14.36,12.61-13.93,14.72-7.12-1.14-8.94,6-9.06,6.79-.91,6.42,5.24,9.3,14.47,9.42l25.18.07c14.61,0,17-7.27,15-14a11.56,11.56,0,0,0-14.33-7.51c0-.08-.08-.17-.14-.28"/><polyline class="cls-6" points="81.32 46.38 100.74 84.04 103.03 88.48 108.18 98.48 108.23 98.57 108.49 99.07 108.53 99.16"/><line class="cls-6" x1="141.6" y1="112.82" x2="116.67" y2="77.15"/><line class="cls-6" x1="103.02" y1="88.48" x2="116.67" y2="77.15"/><polyline class="cls-6" points="81.32 46.38 81.32 36.71 81.32 24.58"/><line class="cls-6" x1="81.32" y1="36.71" x2="98.5" y2="36.71"/><line class="cls-6" x1="81.32" y1="24.58" x2="98.5" y2="24.58"/><line class="cls-6" x1="98.5" y1="24.58" x2="93.75" y2="30.07"/><line class="cls-6" x1="98.5" y1="36.71" x2="93.75" y2="30.07"/><path class="cls-6" d="M61.29,83.87a14.77,14.77,0,0,0,7.34-5.29c1.12-1.53,2.07-3.41,3.84-4.14a3.92,3.92,0,0,1,3.75.41,12,12,0,0,1,2.38,2.86,3.8,3.8,0,0,0,3.08,1.83c1.4-.11,2.36-1.42,3.62-2.05,1.76-.9,4-.33,5.62.75a55.18,55.18,0,0,1,4.54,3.84,7.38,7.38,0,0,0,5.28,2h.16"/><line class="cls-1" x1="73.44" y1="46.37" x2="28.51" y2="46.37"/><line class="cls-1" x1="63.6" y1="50.76" x2="53.79" y2="50.76"/><line class="cls-1" x1="47.59" y1="50.76" x2="42.22" y2="50.76"/><line class="cls-1" x1="34.82" y1="50.76" x2="21.01" y2="50.76"/><path d="M21.91,41a4,4,0,1,1,4-4A4,4,0,0,1,21.91,41Zm0-6.82A2.8,2.8,0,1,0,24.7,37,2.81,2.81,0,0,0,21.91,34.15Z"/><path d="M35.5,121,33,117.4l-4.35,0L31.29,114l-1.37-4.12L34,111.26l3.5-2.58L37.44,113,41,115.56l-4.16,1.27Zm-1.85-4.79,1.44,2.06.76-2.4,2.4-.73-2-1.46,0-2.51-2,1.49-2.37-.83.79,2.39-1.52,2Z"/><path d="M115.17,28.06l-2.42-3.46-4.22,0,2.55-3.37-1.34-4,4,1.39,3.4-2.51-.08,4.23,3.43,2.46-4,1.23Zm-1.8-4.65,1.4,2,.74-2.33,2.34-.71-2-1.42,0-2.44-2,1.44-2.31-.8.77,2.32-1.47,2Z"/><circle cx="120.12" cy="75.76" r="2.08"/><path d="M124.45,81.67a2.08,2.08,0,1,1,.45-2.91A2.08,2.08,0,0,1,124.45,81.67Z"/><circle cx="126.41" cy="84.34" r="2.08"/><circle cx="129.51" cy="88.58" r="2.08"/><line class="cls-7" x1="32.33" y1="37.28" x2="66.57" y2="37.28"/><line class="cls-7" x1="39.23" y1="42.4" x2="59.88" y2="42.4"/><line class="cls-7" x1="33.91" y1="18.85" x2="65.07" y2="18.85"/><line class="cls-7" x1="65.07" y1="18.85" x2="59.88" y2="37.28"/><line class="cls-7" x1="33.91" y1="18.85" x2="38.86" y2="37.28"/><path class="cls-7" d="M49.15,16.55a6.14,6.14,0,0,1-1.91-2.3A3.73,3.73,0,0,1,48,10.37c1-1,2.53-1.5,3.2-2.75a4.15,4.15,0,0,0,.4-1.94,4.43,4.43,0,0,0-.17-1.35A4.09,4.09,0,0,0,50,2.44,8.3,8.3,0,0,0,47.37,1"/><path class="cls-7" d="M55.24,16.5a4.45,4.45,0,0,1-1.87-1.75,3.11,3.11,0,0,1-.24-2.51c.57-1.57,2.48-2.32,3.09-3.87a2.79,2.79,0,0,0,0-2"/><path class="cls-7" d="M43,16.55a4.41,4.41,0,0,1-1.87-1.76,3.11,3.11,0,0,1-.25-2.51c.58-1.56,2.48-2.31,3.1-3.86a2.79,2.79,0,0,0,0-2"/><line class="cls-7" x1="66.89" y1="22.21" x2="64.28" y2="31.77"/><line class="cls-7" x1="69.77" y1="22.21" x2="67.84" y2="29.51"/><line class="cls-7" x1="71.97" y1="23.51" x2="70.88" y2="28.25"/><path d="M97.84,47.62a9.23,9.23,0,0,1,1-.4A6.86,6.86,0,0,1,100,47a5.67,5.67,0,0,1,1.24,0,6.52,6.52,0,0,1,1.37.25,6,6,0,0,1,1.69.78,4.05,4.05,0,0,1,1.14,1.16,3.44,3.44,0,0,1,.54,1.46,4.16,4.16,0,0,1-.14,1.66,4.45,4.45,0,0,1-.67,1.4,4.63,4.63,0,0,1-.93.9,4.52,4.52,0,0,1-1,.55l-1,.39a6.67,6.67,0,0,0-.84.39,1.2,1.2,0,0,0-.53.54L100.07,58l-1.88-.55.33-1.87a1.58,1.58,0,0,1,.42-.88,3,3,0,0,1,.79-.56,8.88,8.88,0,0,1,1-.4,7.21,7.21,0,0,0,1-.43,3.47,3.47,0,0,0,.89-.62,2.25,2.25,0,0,0,.58-1,1.86,1.86,0,0,0,0-.77,1.58,1.58,0,0,0-.26-.66,1.74,1.74,0,0,0-.54-.54,2.6,2.6,0,0,0-.77-.36,3.81,3.81,0,0,0-1.12-.17,4,4,0,0,0-.84.1c-.23.05-.44.11-.61.16a.78.78,0,0,1-.42,0,.66.66,0,0,1-.48-.5ZM96.15,61.39a1.77,1.77,0,0,1,.31-.63,1.88,1.88,0,0,1,.51-.43,1.8,1.8,0,0,1,1.35-.14,1.53,1.53,0,0,1,.62.32,1.93,1.93,0,0,1,.44.51,2,2,0,0,1,.2.64,1.83,1.83,0,0,1,0,.7,1.73,1.73,0,0,1-.33.63,1.61,1.61,0,0,1-.52.42,1.66,1.66,0,0,1-.63.2,1.83,1.83,0,0,1-1.34-.39,1.71,1.71,0,0,1-.43-.5,1.66,1.66,0,0,1-.2-.63A1.86,1.86,0,0,1,96.15,61.39Z"/><path d="M14.82,69.27a8.7,8.7,0,0,1,.44-1,5.89,5.89,0,0,1,.62-1,6,6,0,0,1,.85-.9,6.28,6.28,0,0,1,1.15-.79A5.84,5.84,0,0,1,19.62,65a4.25,4.25,0,0,1,1.63,0,3.47,3.47,0,0,1,1.41.64,3.86,3.86,0,0,1,1.08,1.27,3.93,3.93,0,0,1,.51,2.75,4.62,4.62,0,0,1-.33,1.13c-.15.35-.3.68-.44,1a7.79,7.79,0,0,0-.31.87,1.16,1.16,0,0,0,0,.76L23.77,75l-1.71,1L21,74.38a1.58,1.58,0,0,1-.34-.91,3.27,3.27,0,0,1,.16-1,7.41,7.41,0,0,1,.42-1,10.28,10.28,0,0,0,.42-1,3.93,3.93,0,0,0,.18-1.07,2.28,2.28,0,0,0-.31-1.11,1.69,1.69,0,0,0-.5-.58,1.61,1.61,0,0,0-.66-.28,1.94,1.94,0,0,0-.76,0,2.52,2.52,0,0,0-.8.3,4.13,4.13,0,0,0-.91.67,4.54,4.54,0,0,0-.52.67c-.13.21-.23.39-.31.54a.64.64,0,0,1-.28.32.6.6,0,0,1-.69,0Zm8.6,10.89a1.77,1.77,0,0,1-.22-.67,1.62,1.62,0,0,1,.05-.66,1.88,1.88,0,0,1,.3-.6,1.84,1.84,0,0,1,.54-.46,1.87,1.87,0,0,1,.68-.22,1.84,1.84,0,0,1,1.27.36,1.79,1.79,0,0,1,.45.53,1.89,1.89,0,0,1,.22.67,1.87,1.87,0,0,1-.06.67,1.76,1.76,0,0,1-.85,1,1.89,1.89,0,0,1-.68.23,1.81,1.81,0,0,1-.66,0,1.74,1.74,0,0,1-.59-.3A2,2,0,0,1,23.42,80.16Z"/><g class="cls-8"><polygon class="cls-3" points="1 112.59 11.9 84.01 16.8 95.33 1 112.59"/></g><line class="cls-7" x1="11.9" y1="84.01" x2="1" y2="112.59"/><line class="cls-7" x1="28.69" y1="99.75" x2="1" y2="112.59"/><line class="cls-7" x1="16.8" y1="95.33" x2="1" y2="112.59"/><line class="cls-7" x1="28.69" y1="99.75" x2="16.8" y2="95.33"/><line class="cls-7" x1="11.9" y1="84.01" x2="16.8" y2="95.33"/><path class="cls-9" d="M57.59,90.23c-7,1.86-14.26-1.8-20.24-5.92a8.41,8.41,0,0,1-2.77-2.63c-.71-1.26-2-4.51-2.06-6A10.24,10.24,0,0,1,35,68.44a8.49,8.49,0,0,1,4.05-2.35A12,12,0,0,1,49,67.79a8.53,8.53,0,0,1,3.48,8.49c-.82,3.77-4.31,6.33-7.76,8.06A19.14,19.14,0,0,1,41,85.82c-2.94.76-6,.38-9.07.61-5.71.44-11.36,3.3-14.46,8.12"/><path class="cls-9" d="M96.11,33.46c2.63-1.84,6.08-1.85,9.29-1.8,1.78,0,3.71.12,5.09,1.24a6.64,6.64,0,0,1,2,3.62,8.8,8.8,0,0,1,.16,4.41,4.38,4.38,0,0,1-2.87,3.15c-2.42.66-4.92-1.82-4.77-4.31s2.35-4.54,4.79-5.09c3.64-.81,7.49,1.25,9.62,4.31s2.8,6.91,2.84,10.64c0,3.07-.46,6.45-2.76,8.5-2.5,2.23-6.32,2.17-9.16,3.95-6,3.77-5,13.63-10.62,18"/><path class="cls-9" d="M69.74,20.85a9.43,9.43,0,0,1,5.33-10.42c1.85-.78,4.19-.85,5.66.51a6,6,0,0,1,1.58,3.85,5.55,5.55,0,0,1-.58,3.62,2.52,2.52,0,0,1-3.22,1,2.84,2.84,0,0,1-1.18-1.88,5,5,0,0,1,2.77-5.39,8.89,8.89,0,0,1,3.77-.54,7.54,7.54,0,0,1,3.1.49c1.69.76,2.63,2.57,3.17,4.34a17.7,17.7,0,0,1,.58,7.72"/></g></g></svg>