<svg xmlns="http://www.w3.org/2000/svg" viewBox="0 0 141.09 152.92"><defs><style>.cls-1{fill:#1d1d1b;}.cls-2{fill:#fff;}.cls-3,.cls-5,.cls-8,.cls-9{fill:none;stroke-linecap:round;}.cls-3,.cls-8,.cls-9{stroke:#000;}.cls-3,.cls-5{stroke-linejoin:round;}.cls-3,.cls-5,.cls-8{stroke-width:2px;}.cls-4,.cls-7{fill:#1869ff;}.cls-4,.cls-6{opacity:0.8;}.cls-5{stroke:#1d1d1b;}.cls-8,.cls-9{stroke-miterlimit:10;}.cls-9{stroke-width:1.5px;stroke-dasharray:5;}</style></defs><title>icon-planning</title><g id="Layer_2" data-name="Layer 2"><g id="ар_1" data-name="ар 1"><path class="cls-1" d="M64.65,33.43l.08,0a.53.53,0,0,1,.65.38.53.53,0,0,1-.38.65l-.08,0c-.82.22-1.65.46-2.46.71a.52.52,0,0,1-.66-.34.53.53,0,0,1,.34-.67C63,33.9,63.81,33.65,64.65,33.43Zm2.68-.62h0c.88-.18,1.77-.34,2.66-.47a.54.54,0,0,1,.15,1.06c-.86.12-1.73.28-2.59.45a.53.53,0,0,1-.63-.42A.53.53,0,0,1,67.33,32.81ZM59.65,35a.54.54,0,0,1,.64.33A.55.55,0,0,1,60,36c-.83.31-1.65.64-2.44,1a.53.53,0,1,1-.43-1c.81-.36,1.65-.7,2.49-1Zm12.94-3h.09c.89-.08,1.8-.14,2.69-.18a.54.54,0,0,1,0,1.07c-.88,0-1.76.09-2.63.17a.54.54,0,0,1-.58-.48A.54.54,0,0,1,72.59,32ZM54.78,37.17a.54.54,0,0,1,.61.28.53.53,0,0,1-.23.71c-.78.4-1.56.82-2.32,1.26a.54.54,0,0,1-.73-.2.52.52,0,0,1,.2-.72c.77-.45,1.57-.88,2.36-1.29Zm23.14-5.34h.14c.89,0,1.8.05,2.69.11A.54.54,0,1,1,80.68,33c-.88-.06-1.77-.1-2.64-.12a.53.53,0,0,1-.52-.54A.53.53,0,0,1,77.92,31.83Zm-27.75,8a.52.52,0,0,1,.58.22.53.53,0,0,1-.16.74q-1.1.72-2.16,1.5a.55.55,0,0,1-.75-.11.54.54,0,0,1,.12-.75c.72-.53,1.46-1,2.21-1.53A.33.33,0,0,1,50.17,39.84Zm33.07-7.63a.66.66,0,0,1,.2,0c.89.11,1.78.25,2.67.41a.53.53,0,0,1-.2,1c-.86-.16-1.74-.29-2.61-.4a.54.54,0,0,1-.06-1ZM45.88,43a.53.53,0,0,1,.47.93c-.68.55-1.34,1.13-2,1.72a.53.53,0,1,1-.73-.78c.66-.6,1.34-1.2,2-1.77A.67.67,0,0,1,45.88,43Zm42.6-9.82a.57.57,0,0,1,.26,0c.87.21,1.74.44,2.61.7a.53.53,0,1,1-.31,1c-.84-.25-1.7-.48-2.55-.68a.54.54,0,0,1-.39-.64A.55.55,0,0,1,88.48,33.17ZM42,46.58a.55.55,0,0,1,.51.14.53.53,0,0,1,0,.75c-.61.63-1.21,1.28-1.78,1.93a.54.54,0,0,1-.81-.7c.59-.67,1.21-1.33,1.83-2A.64.64,0,0,1,42,46.58ZM93.6,34.7a.47.47,0,0,1,.31,0c.85.3,1.69.63,2.51,1a.53.53,0,1,1-.41,1q-1.22-.51-2.46-1a.53.53,0,0,1-.32-.68A.51.51,0,0,1,93.6,34.7ZM38.45,50.59a.51.51,0,0,1,.46.09.54.54,0,0,1,.09.75c-.54.69-1.07,1.4-1.57,2.12a.53.53,0,1,1-.87-.62c.51-.73,1-1.46,1.6-2.16A.53.53,0,0,1,38.45,50.59ZM98.51,36.76a.53.53,0,0,1,.37,0c.8.39,1.6.81,2.39,1.24a.53.53,0,0,1-.52.93c-.77-.42-1.56-.83-2.34-1.21a.54.54,0,0,1,.1-1ZM35.39,54.94a.57.57,0,0,1,.42.07.53.53,0,0,1,.17.73c-.47.75-.92,1.51-1.34,2.28a.53.53,0,0,1-.72.2.52.52,0,0,1-.21-.72c.43-.78.89-1.56,1.36-2.32A.58.58,0,0,1,35.39,54.94Zm67.78-15.6a.57.57,0,0,1,.42.07c.75.47,1.51,1,2.24,1.49a.53.53,0,0,1,.13.74.54.54,0,0,1-.75.13c-.71-.5-1.45-1-2.19-1.46a.52.52,0,0,1-.17-.73A.58.58,0,0,1,103.17,39.34ZM32.81,59.61a.59.59,0,0,1,.37,0,.54.54,0,0,1,.25.72c-.38.78-.75,1.59-1.08,2.4a.54.54,0,1,1-1-.41q.53-1.24,1.11-2.46A.55.55,0,0,1,32.81,59.61Zm74.71-17.2a.54.54,0,0,1,.47.1c.7.55,1.4,1.13,2.06,1.72a.52.52,0,0,1,0,.75.53.53,0,0,1-.75.05c-.65-.58-1.34-1.14-2-1.68a.53.53,0,0,1-.09-.75A.49.49,0,0,1,107.52,42.41ZM30.76,64.53a.47.47,0,0,1,.31,0,.53.53,0,0,1,.32.68c-.29.82-.56,1.67-.81,2.51a.55.55,0,0,1-.67.36.54.54,0,0,1-.36-.66c.26-.86.54-1.73.84-2.57A.51.51,0,0,1,30.76,64.53Zm80.76-18.6a.54.54,0,0,1,.51.13c.63.63,1.26,1.28,1.86,1.94a.53.53,0,0,1-.78.72c-.59-.65-1.21-1.28-1.83-1.9a.53.53,0,0,1,0-.75A.52.52,0,0,1,111.52,45.93ZM29.24,69.64a.46.46,0,0,1,.26,0,.53.53,0,0,1,.4.64c-.21.85-.39,1.72-.55,2.58a.53.53,0,1,1-1-.19c.16-.88.34-1.77.55-2.64A.54.54,0,0,1,29.24,69.64Zm85.87-19.79a.52.52,0,0,1,.54.18q.85,1,1.65,2.13a.54.54,0,0,1-.11.74.55.55,0,0,1-.75-.11c-.52-.71-1.06-1.41-1.61-2.08a.54.54,0,0,1,.07-.75A.61.61,0,0,1,115.11,49.85Zm-86.82,25a.68.68,0,0,1,.2,0,.54.54,0,0,1,.46.6c-.1.87-.19,1.76-.25,2.63a.54.54,0,0,1-.57.49.52.52,0,0,1-.49-.57c.06-.89.15-1.79.26-2.68A.51.51,0,0,1,28.29,74.89Zm90-20.74a.52.52,0,0,1,.58.22c.49.75,1,1.52,1.41,2.3a.53.53,0,1,1-.92.53q-.66-1.14-1.38-2.25a.53.53,0,0,1,.15-.73A.37.37,0,0,1,118.25,54.15ZM27.92,80.21l.14,0a.54.54,0,0,1,.53.54c0,.87,0,1.76,0,2.64a.53.53,0,0,1-.51.55.54.54,0,0,1-.56-.51c0-.9,0-1.81,0-2.7A.52.52,0,0,1,27.92,80.21Zm93-21.45a.54.54,0,0,1,.61.28c.4.79.79,1.61,1.15,2.43a.54.54,0,1,1-1,.43c-.35-.8-.73-1.6-1.12-2.38a.54.54,0,0,1,.23-.72ZM28.13,85.53l.08,0a.55.55,0,0,1,.59.49c.08.87.18,1.75.31,2.61a.53.53,0,0,1-.44.61.53.53,0,0,1-.61-.45c-.13-.88-.24-1.78-.33-2.67A.54.54,0,0,1,28.13,85.53Zm94.92-21.89a.52.52,0,0,1,.63.33c.32.83.61,1.69.88,2.54a.53.53,0,0,1-.34.67.52.52,0,0,1-.67-.35c-.27-.83-.56-1.67-.86-2.49a.52.52,0,0,1,.31-.68ZM28.91,90.8h0a.53.53,0,0,1,.63.42c.18.85.38,1.72.6,2.56a.53.53,0,0,1-.38.65.52.52,0,0,1-.65-.38c-.23-.86-.43-1.74-.61-2.62A.52.52,0,0,1,28.91,90.8Zm95.74-22.08h0a.53.53,0,0,1,.65.38c.23.87.43,1.75.61,2.63a.54.54,0,0,1-1,.21c-.17-.86-.37-1.72-.59-2.57A.53.53,0,0,1,124.65,68.72ZM30.17,95.65a.53.53,0,0,1,.64.36c.26.84.55,1.68.85,2.49a.54.54,0,0,1-.31.69.54.54,0,0,1-.69-.32c-.31-.83-.6-1.69-.87-2.55a.52.52,0,0,1,.35-.66ZM125.7,73.94h.06a.55.55,0,0,1,.61.45c.13.89.23,1.79.31,2.67a.52.52,0,0,1-.48.58.54.54,0,0,1-.58-.48c-.08-.87-.18-1.75-.31-2.62A.53.53,0,0,1,125.7,73.94ZM32,100.64a.55.55,0,0,1,.63.3c.34.8.72,1.61,1.11,2.39a.53.53,0,0,1-.23.72.54.54,0,0,1-.72-.24c-.4-.8-.79-1.62-1.14-2.44a.53.53,0,0,1,.27-.7Zm94.17-21.39.11,0a.53.53,0,0,1,.55.51c0,.89.05,1.8,0,2.7a.54.54,0,0,1-1.07,0c0-.88,0-1.77,0-2.64A.53.53,0,0,1,126.19,79.25ZM34.41,105.4a.54.54,0,0,1,.6.25c.44.77.9,1.53,1.37,2.26a.53.53,0,0,1-.9.57c-.48-.74-.95-1.52-1.4-2.3a.53.53,0,0,1,.2-.72A.38.38,0,0,1,34.41,105.4Zm91.68-20.83a.47.47,0,0,1,.17,0,.53.53,0,0,1,.5.57c-.07.89-.16,1.8-.28,2.68a.52.52,0,0,1-.59.46.53.53,0,0,1-.46-.59c.11-.87.2-1.76.26-2.63A.53.53,0,0,1,126.09,84.57ZM37.3,109.88a.53.53,0,0,1,.57.2c.52.71,1.06,1.41,1.6,2.08a.53.53,0,0,1-.82.68c-.56-.69-1.11-1.41-1.64-2.13a.54.54,0,0,1,.11-.75A.48.48,0,0,1,37.3,109.88Zm88.11-20a.45.45,0,0,1,.23,0,.53.53,0,0,1,.43.62c-.16.87-.35,1.76-.56,2.63a.53.53,0,1,1-1-.25c.21-.85.39-1.72.55-2.58A.54.54,0,0,1,125.41,89.86ZM40.66,114a.53.53,0,0,1,.53.16c.59.65,1.2,1.29,1.82,1.9a.53.53,0,0,1,0,.75.55.55,0,0,1-.76,0c-.63-.63-1.26-1.28-1.86-1.95a.53.53,0,0,1,0-.75A.48.48,0,0,1,40.66,114Zm83.5-19a.45.45,0,0,1,.28,0,.53.53,0,0,1,.36.67c-.26.86-.54,1.72-.84,2.56a.53.53,0,0,1-1-.36c.29-.82.57-1.67.82-2.51A.53.53,0,0,1,124.16,95.05ZM44.45,117.74a.51.51,0,0,1,.48.12c.66.57,1.33,1.14,2,1.69a.54.54,0,0,1,.09.75.53.53,0,0,1-.75.08c-.7-.55-1.4-1.14-2.06-1.73a.54.54,0,0,1,0-.75A.5.5,0,0,1,44.45,117.74Zm77.9-17.68a.57.57,0,0,1,.34,0,.53.53,0,0,1,.29.7c-.35.83-.73,1.65-1.12,2.45a.53.53,0,0,1-.71.25.55.55,0,0,1-.25-.72c.39-.78.75-1.59,1.1-2.4A.54.54,0,0,1,122.35,100.06Zm-73.73,21a.5.5,0,0,1,.44.08q1.08.77,2.19,1.47a.53.53,0,0,1,.17.73.55.55,0,0,1-.74.17c-.75-.48-1.5-1-2.24-1.5a.53.53,0,0,1-.12-.74A.49.49,0,0,1,48.62,121.05ZM120,104.86a.49.49,0,0,1,.39,0,.53.53,0,0,1,.21.72c-.44.79-.9,1.57-1.37,2.32a.54.54,0,0,1-.91-.57c.47-.74.92-1.5,1.35-2.27A.49.49,0,0,1,120,104.86Zm-66.9,19a.56.56,0,0,1,.4,0c.76.43,1.55.84,2.33,1.22a.53.53,0,1,1-.47,1c-.8-.39-1.6-.81-2.38-1.25a.53.53,0,0,1-.21-.72A.57.57,0,0,1,53.12,123.89Zm64.06-14.53a.57.57,0,0,1,.44.08.54.54,0,0,1,.13.75c-.52.73-1.06,1.45-1.61,2.15a.53.53,0,1,1-.84-.66c.54-.68,1.08-1.39,1.58-2.11A.57.57,0,0,1,117.18,109.36ZM57.91,126.23a.5.5,0,0,1,.34,0c.81.34,1.64.67,2.46,1a.54.54,0,1,1-.37,1c-.83-.31-1.68-.64-2.51-1a.54.54,0,0,1-.28-.7A.53.53,0,0,1,57.91,126.23Zm56-12.69a.53.53,0,0,1,.53.87c-.59.67-1.2,1.33-1.83,2a.54.54,0,0,1-.76,0,.53.53,0,0,1,0-.75c.61-.63,1.22-1.27,1.79-1.93A.63.63,0,0,1,113.88,113.54Zm-51,14.51a.48.48,0,0,1,.29,0c.84.26,1.7.49,2.55.7a.53.53,0,1,1-.26,1c-.87-.21-1.74-.45-2.6-.71a.53.53,0,0,1-.36-.66A.53.53,0,0,1,62.92,128.05Zm47.22-10.72a.54.54,0,0,1,.5.91c-.66.61-1.35,1.2-2,1.76a.53.53,0,0,1-.75-.08.54.54,0,0,1,.08-.75c.67-.55,1.34-1.13,2-1.72A.53.53,0,0,1,110.14,117.33Zm-42,12a.49.49,0,0,1,.24,0c.86.16,1.74.3,2.6.41a.53.53,0,0,1,.46.6.52.52,0,0,1-.59.46c-.89-.12-1.79-.26-2.67-.42a.53.53,0,0,1,0-1ZM106,120.7a.52.52,0,0,1,.56.2.53.53,0,0,1-.11.74q-1.1.8-2.22,1.53a.53.53,0,0,1-.74-.16.52.52,0,0,1,.16-.73c.73-.48,1.46-1,2.17-1.5A.37.37,0,0,1,106,120.7ZM73.4,130a.47.47,0,0,1,.17,0c.87.07,1.76.11,2.63.12a.53.53,0,0,1,.52.55.52.52,0,0,1-.54.52c-.89,0-1.8-.06-2.69-.13a.53.53,0,0,1-.49-.57A.52.52,0,0,1,73.4,130Zm28.16-6.4a.53.53,0,0,1,.6.25.54.54,0,0,1-.2.72c-.78.45-1.57.88-2.37,1.28a.53.53,0,0,1-.72-.24.52.52,0,0,1,.24-.71c.78-.4,1.56-.82,2.32-1.25A.29.29,0,0,1,101.56,123.6Zm-22.84,6.5h.12c.87,0,1.76-.09,2.63-.17a.54.54,0,0,1,.58.49.54.54,0,0,1-.49.57c-.89.08-1.79.14-2.69.17a.53.53,0,0,1-.15-1.05ZM96.8,126a.53.53,0,0,1,.62.3.52.52,0,0,1-.27.7c-.82.36-1.66.7-2.5,1a.53.53,0,0,1-.68-.32.52.52,0,0,1,.31-.68c.82-.31,1.64-.64,2.44-1ZM84,129.63h0c.87-.13,1.74-.28,2.6-.45a.54.54,0,0,1,.21,1.05c-.88.17-1.77.32-2.65.45a.53.53,0,0,1-.21-1Zm7.78-1.77a.53.53,0,0,1,.65.35.54.54,0,0,1-.35.67c-.78.24-1.57.47-2.36.68l-.23.06a.53.53,0,0,1-.65-.39.52.52,0,0,1,.38-.64h0l.23-.06c.77-.21,1.55-.43,2.31-.67Z"/><path class="cls-1" d="M76.19,131.59h0c-.9,0-1.81-.06-2.71-.13a1,1,0,0,1-.17-1.87h0a1.63,1.63,0,0,1,.31,0c.87.07,1.75.11,2.61.13a.94.94,0,0,1,.93,1A1,1,0,0,1,76.19,131.59ZM73.4,130l.1.4a.13.13,0,0,0-.09.1.13.13,0,0,0,.11.13c.89.06,1.78.11,2.67.12a.12.12,0,0,0,.12-.11.12.12,0,0,0,0-.08.13.13,0,0,0-.09,0c-.87,0-1.77-.06-2.65-.12Zm5.45,1.57a.9.9,0,0,1-.64-.26.89.89,0,0,1-.3-.66.93.93,0,0,1,.7-1l.21,0c.88,0,1.75-.09,2.61-.16a.95.95,0,1,1,.17,1.89c-.9.08-1.81.14-2.71.17Zm2.66-1.23h0c-.87.08-1.76.13-2.65.16h0a.11.11,0,0,0-.08.11.09.09,0,0,0,0,.08.08.08,0,0,0,.08,0c.88,0,1.78-.08,2.67-.16a.11.11,0,0,0,.1-.13A.12.12,0,0,0,81.51,130.34Zm-10.63.85h-.13c-.89-.11-1.79-.26-2.69-.42A1,1,0,0,1,68,128.9h0a.94.94,0,0,1,.41,0c.86.16,1.73.3,2.59.41a1,1,0,0,1,.82,1.06A1,1,0,0,1,70.88,131.19Zm-2.78-1.88.11.4a.12.12,0,0,0-.09.09.12.12,0,0,0,.1.14c.87.16,1.76.3,2.64.42a.13.13,0,0,0,.13-.11.12.12,0,0,0-.1-.13c-.87-.11-1.76-.25-2.63-.41Zm16.06,1.78a1,1,0,0,1-.94-.81.94.94,0,0,1,.7-1.05l.11,0c.86-.12,1.72-.27,2.57-.44a1,1,0,0,1,1.12.75.94.94,0,0,1-.14.71.91.91,0,0,1-.61.4c-.88.18-1.78.34-2.67.46ZM84,129.63l.1.4a.13.13,0,0,0-.09.13.12.12,0,0,0,.14.1c.88-.13,1.76-.28,2.63-.45a.14.14,0,0,0,.09-.14.12.12,0,0,0-.14-.09c-.86.17-1.74.32-2.62.45Zm-18.4.58-.23,0c-.86-.21-1.75-.46-2.62-.72a1,1,0,0,1,0-1.83h0a1,1,0,0,1,.51,0q1.26.39,2.52.69a1,1,0,0,1,.7,1.15A.94.94,0,0,1,65.63,130.21ZM63,128.45a.14.14,0,0,0-.09.08.12.12,0,0,0,.08.14c.86.26,1.73.5,2.58.71a.12.12,0,0,0,.14-.09.11.11,0,0,0-.08-.14c-.86-.21-1.72-.44-2.57-.7Zm26.35,1.6a.95.95,0,0,1-.28-1.85l.27-.08c.77-.2,1.54-.42,2.29-.65l0,0a1,1,0,0,1,.52,1.83c-.78.24-1.58.47-2.38.68l-.23.06Zm0-1.06a.12.12,0,0,0-.08.14.11.11,0,0,0,.14.08l.23-.06c.78-.2,1.57-.42,2.34-.67a.11.11,0,1,0-.06-.22c-.78.24-1.56.47-2.34.67Zm-28.83-.32a.89.89,0,0,1-.32,0c-.85-.31-1.7-.64-2.53-1a1,1,0,0,1-.51-.52,1,1,0,0,1,0-.72.92.92,0,0,1,.63-.55h0a1,1,0,0,1,.61,0c.81.34,1.62.67,2.44,1a.95.95,0,0,1-.33,1.84Zm-2.61-2.44.1.41a.12.12,0,0,0-.07.06.13.13,0,0,0,.06.16c.81.34,1.65.67,2.48,1a.11.11,0,0,0,.15-.07.11.11,0,0,0-.07-.15c-.82-.29-1.66-.62-2.47-1Zm36.55,2.23a1.08,1.08,0,0,1-.38-.08,1,1,0,0,1-.5-.54.94.94,0,0,1,.55-1.22c.82-.31,1.64-.64,2.43-1l.14,0h0a.94.94,0,0,1,1.12,1.26,1,1,0,0,1-.5.53c-.83.36-1.68.7-2.52,1A1,1,0,0,1,94.46,128.46Zm2.47-2.07h0c-.8.35-1.63.69-2.47,1a.11.11,0,0,0-.06.15.11.11,0,0,0,.06.07h.09c.82-.31,1.66-.65,2.47-1a.07.07,0,0,0,.06-.06.09.09,0,0,0,0-.09A.11.11,0,0,0,96.93,126.39Zm-41.31.2a1,1,0,0,1-.42-.09c-.8-.4-1.61-.82-2.41-1.26a1,1,0,0,1-.45-.57,1,1,0,0,1,.68-1.18,1,1,0,0,1,.7.09c.76.42,1.54.83,2.31,1.21a.94.94,0,0,1,.44,1.27.91.91,0,0,1-.54.48A.84.84,0,0,1,55.62,126.59Zm-2.36-2.3h0a.08.08,0,0,0-.07,0,.13.13,0,0,0,0,.16c.78.43,1.58.85,2.37,1.24a.1.1,0,0,0,.09,0s0,0,.06,0a.15.15,0,0,0,0-.09.13.13,0,0,0-.06-.07c-.79-.39-1.59-.8-2.36-1.23A.06.06,0,0,0,53.26,124.29Zm46.09,2a1,1,0,0,1-.3,0,1,1,0,0,1-.13-1.75c.77-.39,1.54-.81,2.3-1.24a.77.77,0,0,1,.23-.1h0a1,1,0,0,1,1.07.45,1,1,0,0,1,.09.72,1,1,0,0,1-.44.58c-.79.44-1.59.88-2.4,1.28A.87.87,0,0,1,99.35,126.32Zm2.31-2.32h0c-.76.44-1.55.87-2.34,1.26a.13.13,0,0,0-.05.16.19.19,0,0,0,.07.06.15.15,0,0,0,.09,0c.79-.4,1.58-.83,2.35-1.27a.13.13,0,0,0,.06-.07.18.18,0,0,0,0-.09A.12.12,0,0,0,101.66,124ZM51,124a.94.94,0,0,1-.5-.15c-.76-.48-1.52-1-2.26-1.51a1,1,0,0,1-.39-.62A1,1,0,0,1,48,121a1,1,0,0,1,.53-.37h0a1,1,0,0,1,.79.15c.71.5,1.44,1,2.17,1.45a1,1,0,0,1,.3,1.31A1,1,0,0,1,51,124Zm-2.24-2.55a.13.13,0,0,0-.06,0,.07.07,0,0,0,0,.08.09.09,0,0,0,0,.08c.73.51,1.47,1,2.22,1.48a.11.11,0,0,0,.16,0,.11.11,0,0,0,0-.09.15.15,0,0,0,0-.07c-.75-.47-1.49-1-2.21-1.48A.14.14,0,0,0,48.72,121.45ZM104,123.67a.68.68,0,0,1-.2,0,.95.95,0,0,1-.32-1.72c.73-.48,1.45-1,2.15-1.49a1,1,0,0,1,.32-.15h0a1,1,0,0,1,.8,1.69c-.72.53-1.48,1-2.24,1.54A.92.92,0,0,1,104,123.67Zm2.19-2.57h0l0,0q-1.07.78-2.19,1.5a.13.13,0,0,0,0,.17.15.15,0,0,0,.07,0,.15.15,0,0,0,.09,0c.75-.49,1.49-1,2.2-1.51a.15.15,0,0,0,0-.17A.14.14,0,0,0,106.16,121.1Zm-59.54-.18a1,1,0,0,1-.59-.21c-.7-.56-1.4-1.14-2.08-1.74a1,1,0,0,1-.08-1.35.92.92,0,0,1,.47-.28,1,1,0,0,1,.87.2c.65.57,1.32,1.14,2,1.68a1,1,0,0,1,.36.64,1,1,0,0,1-.2.7,1,1,0,0,1-.64.35Zm-2-2.78h0a.1.1,0,0,0,0,0,.11.11,0,0,0,0,.16c.67.59,1.36,1.17,2,1.72a.16.16,0,0,0,.09,0,.09.09,0,0,0,.07,0,.12.12,0,0,0,0-.09.25.25,0,0,0-.05-.08c-.69-.55-1.38-1.12-2-1.7A.1.1,0,0,0,44.58,118.14Zm63.69,2.4h-.1a.95.95,0,0,1-.5-1.68c.67-.55,1.33-1.12,2-1.7a.88.88,0,0,1,.4-.22h0a1,1,0,0,1,1.19,1,.92.92,0,0,1-.31.66c-.67.61-1.36,1.2-2,1.77A1,1,0,0,1,108.27,120.54Zm2-2.8,0,0c-.65.59-1.32,1.18-2,1.74a.1.1,0,0,0,0,.16.14.14,0,0,0,.16,0c.68-.56,1.36-1.15,2-1.75a.09.09,0,0,0,0-.08.16.16,0,0,0,0-.08A.1.1,0,0,0,110.25,117.74Zm-67.61-.35a1,1,0,0,1-.67-.28c-.64-.63-1.27-1.29-1.88-2a.92.92,0,0,1-.24-.69.94.94,0,0,1,.31-.66.92.92,0,0,1,.39-.21h0a1,1,0,0,1,1,.28c.58.64,1.19,1.27,1.81,1.88a1,1,0,0,1,0,1.34,1,1,0,0,1-.66.29Zm-1.87-3-.05,0a.12.12,0,0,0,0,.08.1.1,0,0,0,0,.08c.6.66,1.22,1.31,1.85,1.93,0,0,.06,0,.08,0a.1.1,0,0,0,.08,0,.14.14,0,0,0,0-.17c-.63-.61-1.24-1.26-1.84-1.91a.13.13,0,0,0-.11,0ZM112.2,117a1,1,0,0,1-.67-.27,1,1,0,0,1-.28-.67.94.94,0,0,1,.27-.67c.61-.63,1.21-1.27,1.78-1.91a1,1,0,0,1,.47-.29h0a.94.94,0,0,1,.87.2.93.93,0,0,1,.32.66.91.91,0,0,1-.24.68c-.58.67-1.21,1.34-1.84,2A1,1,0,0,1,112.2,117Zm1.78-3a.1.1,0,0,0,0,0c-.58.65-1.19,1.31-1.81,1.94a.14.14,0,0,0,0,.17.11.11,0,0,0,.16,0c.63-.64,1.24-1.29,1.82-2a.12.12,0,0,0,0-.16A.13.13,0,0,0,114,113.94Zm-74.92-.49a1,1,0,0,1-.74-.35c-.56-.69-1.12-1.42-1.65-2.15a.94.94,0,0,1-.17-.71.95.95,0,0,1,.7-.77h0a1,1,0,0,1,1,.36q.76,1.07,1.59,2.07a1,1,0,0,1-.14,1.34A1,1,0,0,1,39.06,113.45Zm-1.62-3.17h0l0,0a.15.15,0,0,0,0,.07.15.15,0,0,0,0,.09c.53.72,1.08,1.43,1.63,2.11a.11.11,0,0,0,.18-.14c-.55-.68-1.1-1.39-1.62-2.11A.11.11,0,0,0,37.44,110.28ZM115.72,113a1,1,0,0,1-.59-.2.94.94,0,0,1-.35-.64,1,1,0,0,1,.19-.7c.55-.68,1.07-1.38,1.57-2.09a1,1,0,0,1,.53-.37h0a.94.94,0,0,1,1.17.76.9.9,0,0,1-.16.71c-.51.73-1.06,1.46-1.62,2.17a1,1,0,0,1-.64.36Zm1.57-3.19a.09.09,0,0,0-.07,0c-.51.72-1,1.44-1.59,2.13a.12.12,0,0,0,0,.16.1.1,0,0,0,.08,0,.09.09,0,0,0,.08,0c.56-.71,1.09-1.42,1.6-2.14a.18.18,0,0,0,0-.09.1.1,0,0,0-.05-.08A.1.1,0,0,0,117.29,109.77Zm-81.36-.62-.19,0a1,1,0,0,1-.61-.42c-.47-.73-1-1.52-1.41-2.32a1,1,0,0,1,.35-1.29.67.67,0,0,1,.23-.1h0a1,1,0,0,1,1.06.45c.44.76.89,1.51,1.36,2.23a1,1,0,0,1-.28,1.31A1,1,0,0,1,35.93,109.15Zm-1.41-3.34h0a.12.12,0,0,0-.05.16c.46.79.92,1.55,1.39,2.28a.15.15,0,0,0,.08,0,.13.13,0,0,0,.08,0,.08.08,0,0,0,0-.07.1.1,0,0,0,0-.09c-.48-.73-.94-1.49-1.38-2.27A.12.12,0,0,0,34.52,105.81Zm84.27,2.8a.9.9,0,0,1-.5-.14,1,1,0,0,1-.3-1.31c.46-.73.91-1.49,1.33-2.25a1,1,0,0,1,.59-.46,1,1,0,0,1,1.07,1.38c-.44.79-.9,1.58-1.38,2.34A.94.94,0,0,1,118.79,108.61Zm1.36-3.36h0a.1.1,0,0,0-.07,0c-.43.78-.89,1.55-1.35,2.29a.11.11,0,0,0,0,.16.11.11,0,0,0,.16,0c.47-.74.93-1.51,1.36-2.29a.12.12,0,0,0,0-.16Zm-86.86-.73a.94.94,0,0,1-.85-.52c-.41-.82-.8-1.65-1.15-2.46a1,1,0,0,1,.49-1.25l.14-.05h0a.94.94,0,0,1,1.11.54c.34.79.71,1.59,1.11,2.37a1,1,0,0,1-.43,1.27A.9.9,0,0,1,33.29,104.52ZM32.13,101h0a.11.11,0,0,0-.06.15c.35.8.73,1.62,1.13,2.42a.11.11,0,0,0,.16,0,.1.1,0,0,0,0-.15c-.4-.79-.78-1.6-1.13-2.41A.12.12,0,0,0,32.13,101ZM121.38,104a.86.86,0,0,1-.41-.1.91.91,0,0,1-.48-.54.93.93,0,0,1,0-.73c.38-.78.74-1.58,1.08-2.38a1,1,0,0,1,.64-.55h0a.92.92,0,0,1,.61,0,.94.94,0,0,1,.51.51,1,1,0,0,1,0,.73c-.35.83-.73,1.67-1.12,2.47A1,1,0,0,1,121.38,104Zm1-3.9.11.41a.11.11,0,0,0-.08.06c-.34.82-.72,1.64-1.1,2.43a.11.11,0,0,0,0,.15.12.12,0,0,0,.16,0c.39-.79.76-1.61,1.1-2.43a.09.09,0,0,0,0-.09.1.1,0,0,0-.06-.07Zm-91.19-.43a.94.94,0,0,1-.89-.61c-.31-.85-.61-1.71-.88-2.57a1,1,0,0,1,.07-.73,1,1,0,0,1,.56-.46h0a1,1,0,0,1,1.15.63c.26.84.54,1.67.84,2.47a1,1,0,0,1-.56,1.23A1,1,0,0,1,31.16,99.63Zm-1-4,.09.41a.1.1,0,0,0-.07.14c.26.85.55,1.7.86,2.53a.11.11,0,0,0,.16.06.11.11,0,0,0,.06-.14c-.3-.82-.59-1.66-.86-2.52a.12.12,0,0,0-.14-.08h0Zm93.29,3.4a1,1,0,0,1-.33-.06,1,1,0,0,1-.57-1.21c.3-.83.58-1.66.82-2.49a1,1,0,0,1,.67-.64.89.89,0,0,1,.51,0,1,1,0,0,1,.64,1.19c-.26.87-.55,1.74-.85,2.58a.95.95,0,0,1-.89.63Zm.8-3.6a.15.15,0,0,0-.08.08c-.25.84-.53,1.69-.83,2.53a.09.09,0,0,0,0,.09.14.14,0,0,0,.07.06.13.13,0,0,0,.09,0,.17.17,0,0,0,.06-.06c.3-.83.58-1.69.83-2.54a.12.12,0,0,0-.07-.15Zm-94.61-.59a1,1,0,0,1-.48-.13,1,1,0,0,1-.44-.58c-.22-.88-.43-1.77-.61-2.65a1,1,0,0,1,.69-1.11h0l.09.41-.08-.41a1,1,0,0,1,1.15.73c.17.85.37,1.71.59,2.55a1,1,0,0,1-.68,1.16A1,1,0,0,1,29.65,94.86Zm-.74-4.06.11.4a.11.11,0,0,0-.08.14c.17.86.38,1.74.6,2.6a.14.14,0,0,0,.14.08.12.12,0,0,0,.09-.14c-.23-.85-.43-1.73-.61-2.59A.11.11,0,0,0,29,91.2ZM125,93.94a.78.78,0,0,1-.22,0,1,1,0,0,1-.71-1.14c.21-.85.39-1.71.55-2.56a1,1,0,0,1,.69-.75h0a1,1,0,0,1,.42,0,.92.92,0,0,1,.61.39,1,1,0,0,1,.15.71c-.16.87-.35,1.76-.57,2.66A.94.94,0,0,1,125,93.94Zm.42-4.08.11.41a.12.12,0,0,0-.09.09c-.16.87-.35,1.74-.55,2.6a.12.12,0,0,0,.08.14.11.11,0,0,0,.14-.08c.21-.89.4-1.77.56-2.62a.13.13,0,0,0-.1-.13Zm-96.83-.22a.9.9,0,0,1-.56-.19.92.92,0,0,1-.37-.62q-.21-1.35-.33-2.7a.93.93,0,0,1,.7-1h0a.4.4,0,0,1,.15,0,1,1,0,0,1,1,.86c.08.87.19,1.74.32,2.59a1,1,0,0,1-.18.71,1,1,0,0,1-.63.37Zm-.45-4.11.1.4a.12.12,0,0,0-.08.13c.08.87.19,1.77.32,2.65a.1.1,0,0,0,.05.07.07.07,0,0,0,.08,0,.08.08,0,0,0,.08,0,.1.1,0,0,0,0-.09c-.13-.86-.24-1.75-.32-2.64a.12.12,0,0,0-.13-.1ZM126,88.69h-.11a1,1,0,0,1-.83-1.07c.12-.86.2-1.74.27-2.6a.94.94,0,0,1,.7-.85h0a.93.93,0,0,1,1,.3.91.91,0,0,1,.23.69c-.07.9-.16,1.81-.27,2.7A1,1,0,0,1,126,88.69Zm.14-4.12.1.4a.11.11,0,0,0-.08.11c-.07.88-.16,1.77-.27,2.65a.12.12,0,1,0,.23,0c.11-.88.2-1.78.27-2.66a.14.14,0,0,0-.11-.13Zm-98-.23a.94.94,0,0,1-.65-.26.91.91,0,0,1-.3-.66c0-.89-.05-1.81,0-2.71a1,1,0,0,1,.71-.91h0l.26,0a1,1,0,0,1,.93,1c0,.86,0,1.74,0,2.61a1,1,0,0,1-.92,1Zm-.17-4.13.1.4a.11.11,0,0,0-.08.11c0,.89,0,1.79,0,2.67a.09.09,0,0,0,0,.08.07.07,0,0,0,.08,0,.11.11,0,0,0,.11-.12c0-.88,0-1.78,0-2.66a.11.11,0,0,0-.11-.11Zm98.43,3.17h0a1,1,0,0,1-.67-.29.93.93,0,0,1-.26-.68c0-.87,0-1.75,0-2.61a1,1,0,0,1,.71-1h0a.76.76,0,0,1,.21,0,1,1,0,0,1,1,.92c0,.9,0,1.81,0,2.71A1,1,0,0,1,126.35,83.38Zm-.16-4.13.1.4a.11.11,0,0,0-.08.12c0,.88,0,1.77,0,2.65a.19.19,0,0,0,0,.09s.06,0,.09,0a.11.11,0,0,0,.11-.11c0-.89,0-1.79,0-2.67a.13.13,0,0,0-.12-.12Zm-98-.24H28.1a1,1,0,0,1-.88-1c.06-.88.15-1.8.26-2.7a1,1,0,0,1,.71-.81h0a1.09,1.09,0,0,1,.36,0,.95.95,0,0,1,.82,1.06c-.11.85-.19,1.73-.26,2.61a.94.94,0,0,1-.94.88Zm.12-4.12.11.4a.12.12,0,0,0-.09.1c-.11.89-.2,1.79-.26,2.66a.12.12,0,0,0,.11.13.12.12,0,0,0,.08,0,.09.09,0,0,0,0-.08c.07-.9.15-1.79.26-2.65a.12.12,0,0,0,0-.09.1.1,0,0,0-.08,0Zm97.86,3.16a1,1,0,0,1-.94-.86c-.08-.86-.18-1.73-.31-2.6a.94.94,0,0,1,.7-1l.1,0a1,1,0,0,1,1.08.8c.13.9.24,1.81.32,2.7a1,1,0,0,1-.22.7,1,1,0,0,1-.65.33Zm-.45-4.11.11.4a.13.13,0,0,0-.09.13c.13.88.24,1.77.32,2.64a.12.12,0,0,0,.12.11s.07,0,.08,0a.19.19,0,0,0,0-.09c-.08-.87-.19-1.77-.32-2.65a.11.11,0,0,0-.13-.1Zm-96.87-.22-.17,0a.94.94,0,0,1-.61-.39.9.9,0,0,1-.15-.71c.16-.9.35-1.79.55-2.67a.93.93,0,0,1,.69-.69h0a1.19,1.19,0,0,1,.46,0,1,1,0,0,1,.59.43.93.93,0,0,1,.11.71c-.2.84-.38,1.7-.53,2.56A1,1,0,0,1,28.83,73.72Zm.41-4.08.11.4a.16.16,0,0,0-.09.09c-.2.85-.38,1.73-.54,2.61a.13.13,0,0,0,.09.14.11.11,0,0,0,.13-.09c.16-.88.35-1.76.55-2.61A.13.13,0,0,0,29.4,70Zm96.14,3.14a1,1,0,0,1-.93-.76c-.17-.84-.36-1.7-.58-2.55a.94.94,0,0,1,.68-1.15h0a1,1,0,0,1,1.16.68c.22.87.43,1.76.61,2.64a1,1,0,0,1-.75,1.12A.58.58,0,0,1,125.38,72.78Zm-.65-3.64a.09.09,0,0,0,0,.12c.22.87.42,1.74.59,2.6a.12.12,0,0,0,.14.09.13.13,0,0,0,.09-.14c-.18-.87-.38-1.74-.6-2.6a.13.13,0,0,0-.05-.07Zm-94.66-.61a1.35,1.35,0,0,1-.28,0,1,1,0,0,1-.64-1.18c.26-.88.55-1.75.85-2.59a1,1,0,0,1,.65-.6.89.89,0,0,1,.56,0,.91.91,0,0,1,.54.48,1,1,0,0,1,0,.73c-.29.81-.57,1.65-.81,2.49a1,1,0,0,1-.46.56A.92.92,0,0,1,30.07,68.53Zm.79-3.6a.18.18,0,0,0-.08.07c-.29.83-.57,1.68-.83,2.54a.13.13,0,0,0,0,.09.11.11,0,0,0,.07.06.13.13,0,0,0,.09,0,.14.14,0,0,0,.06-.07c.25-.85.53-1.7.82-2.53A.14.14,0,0,0,31,65a.14.14,0,0,0-.07-.06Zm93.19,2.69a.91.91,0,0,1-.43-.1,1,1,0,0,1-.47-.56c-.26-.82-.55-1.66-.85-2.47a1,1,0,0,1,0-.73.91.91,0,0,1,.53-.49l.09,0a.93.93,0,0,1,1.13.58c.32.85.62,1.71.89,2.57a1,1,0,0,1-.62,1.19A.92.92,0,0,1,124.05,67.62Zm-1-4,.1.41a.11.11,0,0,0-.07.06.09.09,0,0,0,0,.09c.31.83.6,1.67.86,2.51a.23.23,0,0,0,.06.07.09.09,0,0,0,.09,0,.11.11,0,0,0,.08-.14c-.27-.84-.56-1.69-.88-2.53a.12.12,0,0,0-.13-.07Zm.11.4-.11-.4.11.4Zm-91.31-.53a.9.9,0,0,1-.36-.08.91.91,0,0,1-.51-.51.93.93,0,0,1,0-.73c.35-.84.72-1.67,1.11-2.48a1,1,0,0,1,.62-.5h0a.91.91,0,0,1,.65.06,1,1,0,0,1,.49.54,1,1,0,0,1-.05.73c-.38.79-.74,1.59-1.07,2.38a1,1,0,0,1-.52.52A1,1,0,0,1,31.85,63.51ZM32.92,60a.13.13,0,0,0-.07.06c-.39.8-.76,1.62-1.1,2.44a.09.09,0,0,0,0,.09.09.09,0,0,0,.06.06.09.09,0,0,0,.09,0A.09.09,0,0,0,32,62.6c.34-.81.71-1.62,1.09-2.42a.1.1,0,0,0,0-.09A.13.13,0,0,0,33,60Zm89.26,2.63a.83.83,0,0,1-.34-.07.93.93,0,0,1-.53-.5c-.35-.8-.72-1.59-1.11-2.36a1,1,0,0,1,.42-1.28l.19-.07a1,1,0,0,1,1.08.49c.41.8.8,1.63,1.16,2.46a1,1,0,0,1-.49,1.25A1,1,0,0,1,122.18,62.64ZM121,59.16s0,0,0,0h0a.12.12,0,0,0,0,.16c.4.79.78,1.6,1.14,2.4a.11.11,0,0,0,.06.07.21.21,0,0,0,.08,0,.13.13,0,0,0,.07-.16c-.36-.81-.74-1.62-1.14-2.41A.12.12,0,0,0,121,59.16Zm-86.87-.45a1,1,0,0,1-.83-1.41c.43-.78.9-1.57,1.38-2.34a.94.94,0,0,1,.56-.42h0a.94.94,0,0,1,1.17.71.93.93,0,0,1-.12.71c-.46.74-.91,1.5-1.33,2.26a.93.93,0,0,1-.56.45A.84.84,0,0,1,34.17,58.71Zm1.32-3.36a.1.1,0,0,0-.07,0c-.47.76-.92,1.53-1.35,2.3a.14.14,0,0,0,0,.16.1.1,0,0,0,.09,0s0,0,.07-.06c.42-.77.87-1.54,1.34-2.29a.15.15,0,0,0,0-.09.15.15,0,0,0,0-.07.12.12,0,0,0-.1,0Zm84.29,2.53a.94.94,0,0,1-.82-.47c-.44-.76-.9-1.51-1.37-2.23a.89.89,0,0,1-.13-.71.91.91,0,0,1,.41-.6.8.8,0,0,1,.28-.13h0a1,1,0,0,1,1,.4c.49.76,1,1.54,1.42,2.32a1,1,0,0,1-.35,1.3A1,1,0,0,1,119.78,57.88Zm-1.42-3.33h0a.12.12,0,0,0,0,.17c.48.73.94,1.49,1.39,2.26a.11.11,0,0,0,.16,0,.11.11,0,0,0,0-.15c-.44-.77-.91-1.54-1.4-2.28a.11.11,0,0,0-.12-.05ZM37,54.19a1,1,0,0,1-.54-.17,1,1,0,0,1-.23-1.33c.51-.73,1.06-1.47,1.62-2.18a1,1,0,0,1,.5-.33h0a1,1,0,0,1,1.19.81.94.94,0,0,1-.2.7c-.54.68-1.06,1.39-1.56,2.09A.93.93,0,0,1,37,54.19ZM38.55,51a.09.09,0,0,0-.06,0c-.55.7-1.08,1.42-1.59,2.14a.18.18,0,0,0,0,.09.08.08,0,0,0,0,.07.11.11,0,0,0,.16,0c.5-.72,1-1.44,1.58-2.14a.11.11,0,0,0-.12-.18Zm78.32,2.43h-.14a1,1,0,0,1-.63-.38c-.5-.69-1-1.38-1.59-2.06a.93.93,0,0,1-.21-.7.91.91,0,0,1,.34-.64,1,1,0,0,1,.36-.18.94.94,0,0,1,1,.32c.56.68,1.12,1.41,1.66,2.14a1,1,0,0,1-.21,1.33A.94.94,0,0,1,116.87,53.42Zm-1.63-3.17h0l0,0a.1.1,0,0,0,0,.08.09.09,0,0,0,0,.08c.57.69,1.11,1.4,1.63,2.1a.1.1,0,0,0,.07,0,.08.08,0,0,0,.09,0,.11.11,0,0,0,0-.16c-.52-.72-1.07-1.43-1.63-2.11A.11.11,0,0,0,115.24,50.25Zm-75-.25a.93.93,0,0,1-.62-.23,1,1,0,0,1-.09-1.34c.59-.68,1.21-1.35,1.84-2a.91.91,0,0,1,.44-.26h0a1,1,0,0,1,.91.24,1,1,0,0,1,0,1.34q-.92.95-1.77,1.92a1,1,0,0,1-.66.32Zm1.78-3s0,0-.05,0c-.62.63-1.23,1.29-1.81,2a.1.1,0,0,0,0,.16.1.1,0,0,0,.08,0,.12.12,0,0,0,.08,0c.58-.66,1.19-1.31,1.81-2a.11.11,0,0,0,0-.16.1.1,0,0,0-.11,0Zm71.44,2.32a1,1,0,0,1-.7-.31c-.59-.64-1.2-1.27-1.81-1.88a.94.94,0,0,1-.29-.67,1,1,0,0,1,.27-.67,1.05,1.05,0,0,1,.44-.26h0a1,1,0,0,1,.91.24c.65.64,1.28,1.3,1.88,2a.94.94,0,0,1-.06,1.34A1,1,0,0,1,113.5,49.31Zm-1.88-3-.05,0a.1.1,0,0,0,0,.08.11.11,0,0,0,0,.09c.63.61,1.25,1.25,1.85,1.91a.11.11,0,0,0,.16,0,.13.13,0,0,0,0-.16c-.59-.65-1.22-1.29-1.86-1.92a.13.13,0,0,0-.11,0ZM44,46.2a1,1,0,0,1-.65-1.65c.67-.61,1.36-1.21,2-1.78a1,1,0,0,1,.36-.19h0a1,1,0,0,1,1,.32,1,1,0,0,1-.13,1.34c-.67.55-1.33,1.12-2,1.71A.92.92,0,0,1,44,46.2Zm2-2.81,0,0c-.68.56-1.36,1.15-2,1.75a.12.12,0,0,0,0,.17.1.1,0,0,0,.16,0c.65-.59,1.33-1.18,2-1.74a.11.11,0,0,0,0-.16.12.12,0,0,0-.12,0Zm63.72,2.19a.91.91,0,0,1-.62-.24c-.66-.57-1.34-1.13-2-1.67a1,1,0,0,1-.16-1.33.91.91,0,0,1,.51-.33h0a.9.9,0,0,1,.82.17c.71.56,1.42,1.15,2.09,1.74a.95.95,0,0,1-.63,1.66Zm-2.07-2.77a.12.12,0,0,0-.07,0,.12.12,0,0,0,0,.16c.69.54,1.38,1.11,2,1.7a.11.11,0,0,0,.16,0,.12.12,0,0,0,0-.17c-.66-.58-1.35-1.15-2-1.71a.14.14,0,0,0-.1,0Zm-59.52,0a.92.92,0,0,1-.76-.39.94.94,0,0,1,.2-1.32c.73-.54,1.48-1.06,2.23-1.55a1,1,0,0,1,.28-.13h0a.95.95,0,0,1,1.17,1.12.94.94,0,0,1-.41.6c-.73.48-1.45,1-2.15,1.49A.94.94,0,0,1,48.11,42.82Zm2.16-2.58,0,0c-.74.48-1.48,1-2.2,1.52a.11.11,0,0,0,0,.16.12.12,0,0,0,.16,0c.71-.52,1.44-1,2.19-1.52a.15.15,0,0,0,.05-.07.16.16,0,0,0,0-.09.12.12,0,0,0-.13,0Zm55.25,2a1,1,0,0,1-.55-.18c-.71-.5-1.45-1-2.17-1.45a1,1,0,0,1,.26-1.72h0a1,1,0,0,1,.75.11c.75.48,1.52,1,2.26,1.51a.95.95,0,0,1-.39,1.71Zm-2.22-2.55h0a.1.1,0,0,0-.07,0,.13.13,0,0,0,0,.16c.74.46,1.48,1,2.22,1.47a.13.13,0,0,0,.08,0,.15.15,0,0,0,.08-.05.12.12,0,0,0,0-.16c-.73-.52-1.48-1-2.23-1.48Zm-50.73.17a.94.94,0,0,1-.82-.48.93.93,0,0,1,.35-1.29c.77-.45,1.57-.89,2.38-1.3l.19-.07h0a1,1,0,0,1,1.09.49.94.94,0,0,1-.42,1.27c-.77.39-1.54.81-2.29,1.25A.94.94,0,0,1,52.57,39.91Zm2.32-2.34h0c-.8.41-1.59.84-2.35,1.28a.1.1,0,0,0,0,.07.1.1,0,0,0,0,.09.12.12,0,0,0,.16,0c.77-.45,1.55-.87,2.34-1.27a.13.13,0,0,0,.05-.16A.15.15,0,0,0,54.89,37.57ZM101,39.46a.93.93,0,0,1-.46-.12c-.77-.43-1.55-.83-2.32-1.21a.91.91,0,0,1-.48-.54.94.94,0,0,1,.65-1.23h0a.91.91,0,0,1,.65.06c.82.4,1.64.82,2.42,1.26a.93.93,0,0,1,.45.56,1,1,0,0,1-.08.73.92.92,0,0,1-.57.45A1.09,1.09,0,0,1,101,39.46Zm-2.4-2.29a.1.1,0,0,0-.07.06.11.11,0,0,0,0,.15c.79.38,1.58.8,2.36,1.23a.15.15,0,0,0,.09,0,.13.13,0,0,0,.07-.06.13.13,0,0,0,0-.16c-.77-.42-1.56-.84-2.37-1.23Zm-41.29.33a.83.83,0,0,1-.34-.07,1,1,0,0,1-.53-.5.93.93,0,0,1,0-.73.94.94,0,0,1,.5-.52c.83-.37,1.67-.71,2.51-1l.1,0h0a1,1,0,0,1,1.13.58,1,1,0,0,1,0,.73.93.93,0,0,1-.53.5c-.82.31-1.64.64-2.42,1A1,1,0,0,1,57.32,37.5ZM59.65,35l.09.41c-.82.31-1.65.65-2.47,1a.13.13,0,0,0-.06.15.15.15,0,0,0,.07.07.12.12,0,0,0,.08,0c.8-.35,1.63-.69,2.47-1a.13.13,0,0,0,.07-.15.11.11,0,0,0-.14-.07h0Zm36.56,2.11a.94.94,0,0,1-.36-.08c-.8-.33-1.62-.65-2.44-.94a1,1,0,0,1,.08-1.82h0a.89.89,0,0,1,.56,0c.86.31,1.72.64,2.53,1a1,1,0,0,1-.37,1.83ZM93.6,34.7l.1.4a.1.1,0,0,0-.08.07.12.12,0,0,0,.07.15c.84.3,1.67.63,2.48,1a.12.12,0,0,0,.15-.07.11.11,0,0,0-.06-.15c-.8-.34-1.64-.66-2.49-1Zm-31.3.92a.91.91,0,0,1-.42-.11A.92.92,0,0,1,61.4,35,1,1,0,0,1,62,33.76c.84-.27,1.69-.51,2.53-.73l.07,0a1,1,0,0,1,.73.1.94.94,0,0,1,.43.58.91.91,0,0,1-.1.72.93.93,0,0,1-.58.44c-.89.23-1.71.47-2.51.72A.93.93,0,0,1,62.3,35.62Zm0-.85h.08c.81-.26,1.65-.5,2.48-.72C64.93,34,65,34,65,34a.12.12,0,0,0-.14-.17l-.18-.39.11.41c-.82.21-1.66.45-2.49.71a.12.12,0,0,0-.08.15.23.23,0,0,0,.06.07Zm28.93.56a.88.88,0,0,1-.27,0c-.84-.25-1.69-.48-2.52-.68a1,1,0,0,1-.59-.42,1,1,0,0,1-.12-.72,1,1,0,0,1,.69-.7h0a.9.9,0,0,1,.46,0c.86.2,1.75.44,2.63.7a1,1,0,0,1,.64,1.18A1,1,0,0,1,91.19,35.33Zm-2.71-2.16.11.41a.09.09,0,0,0-.08.08.13.13,0,0,0,0,.09.1.1,0,0,0,.07,0c.85.21,1.72.44,2.57.69a.12.12,0,0,0,.15-.08.11.11,0,0,0-.08-.14q-1.31-.39-2.58-.69Zm-21,1.11a1,1,0,0,1-.24-1.87h0l.11.4-.1-.4c.92-.19,1.82-.35,2.72-.48a.95.95,0,1,1,.27,1.88c-.85.12-1.72.28-2.57.45Zm-.14-1.47.11.41a.1.1,0,0,0-.08.13.11.11,0,0,0,.13.09c.87-.17,1.75-.33,2.62-.46a.11.11,0,0,0,.1-.13.12.12,0,0,0-.13-.1c-.88.13-1.77.29-2.63.46ZM86,34.09l-.17,0c-.86-.15-1.73-.29-2.59-.4a.95.95,0,0,1-.12-1.86h0a.88.88,0,0,1,.36,0c.89.11,1.8.25,2.69.41A1,1,0,0,1,86,34.09Zm-2.77-1.88.1.41a.11.11,0,0,0-.08.1.1.1,0,0,0,.1.12c.87.12,1.76.25,2.63.41a.11.11,0,0,0,.13-.09A.12.12,0,0,0,86,33c-.88-.16-1.77-.29-2.64-.41ZM72.73,33.5a1,1,0,0,1-1-.86,1,1,0,0,1,.71-1h0l.16,0c.9-.08,1.81-.14,2.7-.17a1,1,0,1,1,.08,1.9c-.87,0-1.75.09-2.61.17ZM72.59,32l.11.41a.12.12,0,0,0-.09.12.15.15,0,0,0,.13.11c.88-.09,1.77-.14,2.65-.18a.1.1,0,0,0,.11-.12.1.1,0,0,0-.11-.11c-.88,0-1.78.09-2.67.17Zm8.13,1.39h-.07c-.88-.06-1.76-.1-2.61-.11a1,1,0,0,1-.23-1.87l.26,0c.89,0,1.8.05,2.71.12a1,1,0,0,1,.88,1,.94.94,0,0,1-.94.89Zm-2.67-1.19h0a.11.11,0,0,0-.08.11.13.13,0,0,0,.11.12c.87,0,1.77.05,2.66.11a.11.11,0,0,0,.08,0,.1.1,0,0,0,0-.08c0-.06,0-.11-.11-.12C79.83,32.29,78.93,32.25,78.05,32.23Z"/><path class="cls-1" d="M65.59,37a46.2,46.2,0,0,1,45.26,13,.55.55,0,0,1,0,.76.54.54,0,0,1-.76,0A45.09,45.09,0,0,0,33.62,93.05a.53.53,0,0,1-.38.65.52.52,0,0,1-.65-.38A46.21,46.21,0,0,1,65.59,37Z"/><path class="cls-1" d="M33.1,94.14a1,1,0,0,1-.48-.13,1,1,0,0,1-.44-.59A46.63,46.63,0,0,1,65.48,36.6l.11.4-.11-.4a46.59,46.59,0,0,1,45.67,13.13.9.9,0,0,1,.26.68.93.93,0,0,1-.3.66.85.85,0,0,1-.67.26,1,1,0,0,1-.67-.3A44.68,44.68,0,0,0,34,93a.94.94,0,0,1-.68,1.15A.67.67,0,0,1,33.1,94.14ZM77.25,35.92A45.77,45.77,0,0,0,33,93.21a.13.13,0,0,0,.14.09.12.12,0,0,0,.09-.14,45.51,45.51,0,0,1,77.16-42.7.1.1,0,0,0,.08,0,.12.12,0,0,0,.08,0,.11.11,0,0,0,0-.16A45.78,45.78,0,0,0,77.25,35.92Z"/><path d="M119.75,142H49.66a.83.83,0,0,1-.83-.83.84.84,0,0,1,.83-.84h70.09a.85.85,0,0,1,.84.84A.84.84,0,0,1,119.75,142Z"/><path d="M52.23,147.11H48.11a.83.83,0,0,1,0-1.66h4.12a.83.83,0,0,1,0,1.66Z"/><path d="M65.25,147.11H55.11a.83.83,0,1,1,0-1.66H65.25a.83.83,0,1,1,0,1.66Z"/><path d="M8.57,112.77A5.48,5.48,0,1,1,14,107.29,5.49,5.49,0,0,1,8.57,112.77Zm0-9.29a3.81,3.81,0,1,0,3.81,3.81A3.82,3.82,0,0,0,8.57,103.48Z"/><path d="M97.59,15.85l-3.21-4.6-5.61,0,3.39-4.47L90.39,1.49l5.3,1.83L100.2,0l-.11,5.61,4.56,3.26L99.29,10.5ZM95.2,9.66l1.85,2.66,1-3.09,3.1-.94L98.5,6.4l.06-3.24L96,5.08,92.89,4l1,3.08L92,9.69Z"/><path d="M134,57.65l-3.2-4.6-5.61,0,3.38-4.47-1.77-5.32,5.3,1.83,4.52-3.32-.11,5.61,4.56,3.26-5.37,1.63Zm-2.38-6.18,1.85,2.65,1-3.08,3.1-.95-2.63-1.89L135,45l-2.61,1.93-3.06-1.06,1,3.07-2,2.59Z"/><path class="cls-2" d="M128.12,121.21a8.07,8.07,0,0,1,.77,8.2,5.17,5.17,0,0,1-.85,1.31,8.43,8.43,0,0,1-3.06,1.81,18,18,0,0,1-3.4.72,27.17,27.17,0,0,1-8.36-.69,13.57,13.57,0,0,1-5.72-3.4,9.69,9.69,0,0,0-2-1.85l0-.24c.88.05,1.78.07,2.68.05a12.91,12.91,0,0,0,2.24-.15,16.44,16.44,0,0,0,1.95-.51,10.61,10.61,0,0,0,2.81-1.19,5.49,5.49,0,0,0,1.91-2.61l.38.16a19.89,19.89,0,0,0,7-.39,11.89,11.89,0,0,0,3.45-1.52Z"/><path class="cls-2" d="M66.31,108.67l-.38.07c-.07.46-.59.75-1.08.87-1,.25-6.64,2.27-11.25-2.32a15.52,15.52,0,0,1-2.89-4.23,9.06,9.06,0,0,1,4.08-11c.6-.34,1.16-.73,1.79-1a33.11,33.11,0,0,1,6.78-2.78l.52-.11a7.67,7.67,0,0,1-1.09-4.24,7.13,7.13,0,0,1,.82-2.68c2.64-5.59,12.76-3.69,14.12-3.39a6.28,6.28,0,0,1,3.59,2c.18-1.83-.28-4.2,4.07-5.43a16.75,16.75,0,0,1,4.9-.51,13.32,13.32,0,0,1,2.27.15,7.82,7.82,0,0,1,5.26,3.41,6.64,6.64,0,0,1,1,2.65l.36-.06A4.89,4.89,0,0,1,101,78.18a12.18,12.18,0,0,1,9.07-1.73,15.42,15.42,0,0,1,3.52,1.21,11.09,11.09,0,0,1,5.27,4.59,9.7,9.7,0,0,1,.94,3.3l.19,0a25.25,25.25,0,0,1,6.89,3.06,15.09,15.09,0,0,1,5.3,5.59,8.66,8.66,0,0,1,.85,2.36,10.57,10.57,0,0,1,0,2.92,11.56,11.56,0,0,1-2.11,6.06,6.89,6.89,0,0,1-2.06,1.77l.14.21a11.89,11.89,0,0,1,2.48,7.23,7.07,7.07,0,0,1-.39,2.62,6.57,6.57,0,0,1-.88,1.48,8.64,8.64,0,0,1-2.33,2.09,11.89,11.89,0,0,1-3.45,1.52,19.89,19.89,0,0,1-7,.39l-.38-.16a5.49,5.49,0,0,1-1.91,2.61,10.61,10.61,0,0,1-2.81,1.19,16.44,16.44,0,0,1-1.95.51,12.91,12.91,0,0,1-2.24.15c-.9,0-1.8,0-2.68-.05A17.36,17.36,0,0,1,99.9,126a11.84,11.84,0,0,1-6.67-6.7l-.12-.07a8.21,8.21,0,0,1-.47.73,9.83,9.83,0,0,1-1.93,2.29,8.79,8.79,0,0,1-2.58,1.38,18.79,18.79,0,0,1-2.64.73,27.9,27.9,0,0,1-4.92.48c-1.63,0-3.21-.32-4.84-.46-4.48-.38-9.31-4.17-10.38-6.07l-.15-.11A8.55,8.55,0,0,0,66.48,116a15.77,15.77,0,0,0,1.07-3.61l.25-.2A7.91,7.91,0,0,1,66.31,108.67Z"/><path class="cls-2" d="M85.49,124.32a18.79,18.79,0,0,0,2.64-.73,8.79,8.79,0,0,0,2.58-1.38,9.83,9.83,0,0,0,1.93-2.29,8.21,8.21,0,0,0,.47-.73l.12.07A11.84,11.84,0,0,0,99.9,126a17.36,17.36,0,0,0,5.58,1.11l0,.24a9.69,9.69,0,0,1,2,1.85,13.18,13.18,0,0,0,4,2.76l-.06.14a3.94,3.94,0,0,0-3.24,3.42,11.42,11.42,0,0,0,.41,3c.3,1.66.14,3.65-1.19,4.71a4,4,0,0,1-4.6-.11,10.59,10.59,0,0,1-3.07-3.78c-2.39-4.1-4.44-8.42-7.41-12.1a8.17,8.17,0,0,0-3.2-2.65A8.77,8.77,0,0,0,85.49,124.32Z"/><path class="cls-2" d="M64.85,109.61c.49-.12,1-.41,1.08-.87l.38-.07a7.91,7.91,0,0,0,1.49,3.53l-.25.2A15.77,15.77,0,0,1,66.48,116a8.55,8.55,0,0,1-1.28,2.15,4.45,4.45,0,0,1-.76.74,9.65,9.65,0,0,1-1.52.9,7.87,7.87,0,0,1-2.15.86,6.93,6.93,0,0,1-2.68-.13,10.36,10.36,0,0,1-1.68-.44,12.34,12.34,0,0,1-2.83-1.71,6.12,6.12,0,0,1-1.22-1.6c-.27-.71-.5-1.43-.72-2.15a9.53,9.53,0,0,1-.51-2.58,5.73,5.73,0,0,1,2.47-4.76C58.21,111.88,63.88,109.86,64.85,109.61Z"/><path class="cls-3" d="M77.89,92.63a14,14,0,0,1-10.08-.79,9.76,9.76,0,0,1-3.93-3.71,7.67,7.67,0,0,1-1.09-4.24,7.13,7.13,0,0,1,.82-2.68c2.64-5.59,12.76-3.69,14.12-3.39a6.28,6.28,0,0,1,3.59,2"/><path class="cls-3" d="M81.32,79.82c.18-1.83-.28-4.2,4.07-5.43a16.75,16.75,0,0,1,4.9-.51,13.32,13.32,0,0,1,2.27.15,7.82,7.82,0,0,1,5.26,3.41,6.64,6.64,0,0,1,1,2.65,6.86,6.86,0,0,1-.26,3.3,3,3,0,0,1-1.39,1.81,3.8,3.8,0,0,1-1.33.27c-2.7.21-5.71-.15-7.56-2"/><path class="cls-3" d="M78.92,83.32c-3.1,1.92-1.28,6.86-.72,8.16.86,2,3.08,3.15,5.32,3.44a10,10,0,0,0,9.67-4.61"/><path class="cls-3" d="M63.36,88.24A33.11,33.11,0,0,0,56.58,91c-.63.31-1.19.7-1.79,1a9.06,9.06,0,0,0-4.08,11,15.52,15.52,0,0,0,2.89,4.23c4.61,4.59,10.28,2.57,11.25,2.32.49-.12,1-.41,1.08-.87"/><path class="cls-3" d="M70.4,98a10.39,10.39,0,0,0-3.12,4.08,11,11,0,0,0-1.13,4.69,10.5,10.5,0,0,0,.16,1.92,7.91,7.91,0,0,0,1.49,3.53,7.16,7.16,0,0,0,3.69,2.68c1.55.36,7.78,2.62,11.14-4.06"/><path class="cls-3" d="M53.79,107.15l-.19.14a5.73,5.73,0,0,0-2.47,4.76,9.53,9.53,0,0,0,.51,2.58c.22.72.45,1.44.72,2.15a6.12,6.12,0,0,0,1.22,1.6,12.34,12.34,0,0,0,2.83,1.71,10.36,10.36,0,0,0,1.68.44,6.93,6.93,0,0,0,2.68.13,7.87,7.87,0,0,0,2.15-.86,9.65,9.65,0,0,0,1.52-.9,4.45,4.45,0,0,0,.76-.74A8.55,8.55,0,0,0,66.48,116a15.77,15.77,0,0,0,1.07-3.61"/><path class="cls-3" d="M78.89,105.89a12.17,12.17,0,0,1,3.64-1.15,10.25,10.25,0,0,1,9.35,3.2,11.62,11.62,0,0,1,2.26,6.48,8.25,8.25,0,0,1-.24,3.21,6.55,6.55,0,0,1-.79,1.56,8.21,8.21,0,0,1-.47.73,9.83,9.83,0,0,1-1.93,2.29,8.79,8.79,0,0,1-2.58,1.38,18.79,18.79,0,0,1-2.64.73,27.9,27.9,0,0,1-4.92.48c-1.63,0-3.21-.32-4.84-.46-4.48-.38-9.31-4.17-10.38-6.07"/><path class="cls-3" d="M104.11,114.13a15.17,15.17,0,0,0,3.9.55,4.39,4.39,0,0,0,1.26-.11,5.38,5.38,0,0,0,1.39-.66,5.2,5.2,0,0,0,2.21-2,3,3,0,0,0,.3-1.1c.25-2.19-.86-4.31-2-6.27"/><path class="cls-3" d="M95,99.49a2.69,2.69,0,0,1,1.74-2.19,6,6,0,0,1,3-.31c1.82.22,3.75,1,4.52,2.59a6,6,0,0,1,.46,2.64c.15,5.6-5.78,4.55-6.72,4.27-1.18-.35-2.28-.88-3.41-1.31-.81-.31-1.65-.56-2.49-.8a21.42,21.42,0,0,0-4.26-.84,8.8,8.8,0,0,0-4.26.66"/><path class="cls-3" d="M93.23,119.26A11.84,11.84,0,0,0,99.9,126a17.36,17.36,0,0,0,5.58,1.11c.88.05,1.78.07,2.68.05a12.91,12.91,0,0,0,2.24-.15,16.44,16.44,0,0,0,1.95-.51,10.61,10.61,0,0,0,2.81-1.19,5.49,5.49,0,0,0,1.91-2.61,8.88,8.88,0,0,0,.53-2.29,4.49,4.49,0,0,0,0-1.32,4.66,4.66,0,0,0-.81-1.77,15.55,15.55,0,0,0-4.46-4.39"/><path class="cls-3" d="M109.26,95.36c.5,2,3,3.91,3.84,4.27A5.46,5.46,0,0,0,115,100a8.07,8.07,0,0,0,3.47-.27,9.14,9.14,0,0,0,1.31-.7,6.86,6.86,0,0,0,1.41-1,5.81,5.81,0,0,0,1-1.43,6.82,6.82,0,0,0,.73-1.77,7.64,7.64,0,0,0,.06-2.34"/><path class="cls-3" d="M99.18,80A4.89,4.89,0,0,1,101,78.18a12.18,12.18,0,0,1,9.07-1.73,15.42,15.42,0,0,1,3.52,1.21,11.09,11.09,0,0,1,5.27,4.59,9.7,9.7,0,0,1,.94,3.3c.11.85.16,1.71.19,2.56"/><path class="cls-3" d="M116.63,100.13a4.79,4.79,0,0,0,.49,2.46,11.61,11.61,0,0,0,1.76,2.7c1.8,2.2,5.64,2.67,6.12,2.75a5.75,5.75,0,0,0,3.89-.76,6.89,6.89,0,0,0,2.06-1.77,11.56,11.56,0,0,0,2.11-6.06,10.57,10.57,0,0,0,0-2.92,8.66,8.66,0,0,0-.85-2.36,15.09,15.09,0,0,0-5.3-5.59A25.25,25.25,0,0,0,120,85.52"/><path class="cls-3" d="M105.46,127.31a9.69,9.69,0,0,1,2,1.85,13.57,13.57,0,0,0,5.72,3.4,27.17,27.17,0,0,0,8.36.69,18,18,0,0,0,3.4-.72,8.43,8.43,0,0,0,3.06-1.81,5.17,5.17,0,0,0,.85-1.31,8.07,8.07,0,0,0-.77-8.2"/><path class="cls-3" d="M129,107.49a11.89,11.89,0,0,1,2.48,7.23,7.07,7.07,0,0,1-.39,2.62,6.57,6.57,0,0,1-.88,1.48,8.64,8.64,0,0,1-2.33,2.09,11.89,11.89,0,0,1-3.45,1.52,19.89,19.89,0,0,1-7,.39"/><path class="cls-3" d="M85.49,124.32a8.77,8.77,0,0,1,3.65.23,8.17,8.17,0,0,1,3.2,2.65c3,3.68,5,8,7.41,12.1a10.59,10.59,0,0,0,3.07,3.78,4,4,0,0,0,4.6.11c1.33-1.06,1.49-3.05,1.19-4.71a11.42,11.42,0,0,1-.41-3,3.94,3.94,0,0,1,3.24-3.42"/><polygon class="cls-4" points="64.95 36.32 65.1 36.35 65.1 73.07 56.53 73.07 64.95 36.32"/><polygon class="cls-2" points="37.22 26.86 46.35 28.93 65.64 33.3 64.95 36.32 56.53 73.07 55.46 77.71 33.61 72.94 17.09 69.34 11.19 68.04 20.93 23.17 37.22 26.86"/><polygon class="cls-4" points="33.61 72.94 33.58 73.07 17.09 73.07 17.09 69.34 33.61 72.94"/><polyline class="cls-5" points="20.93 23.17 37.22 26.86 46.35 28.93 65.64 33.3"/><polyline class="cls-5" points="55.46 77.71 56.53 73.07 64.95 36.32 65.64 33.3"/><line class="cls-5" x1="11.19" y1="68.04" x2="20.93" y2="23.17"/><polyline class="cls-5" points="55.46 77.71 33.61 72.94 17.09 69.34 11.19 68.04"/><line class="cls-5" x1="17.09" y1="73.07" x2="33.58" y2="73.07"/><line class="cls-5" x1="17.09" y1="69.34" x2="17.09" y2="73.07"/><line class="cls-5" x1="56.53" y1="73.07" x2="65.1" y2="73.07"/><line class="cls-5" x1="65.1" y1="73.07" x2="65.1" y2="36.35"/><line class="cls-5" x1="24.31" y1="53.82" x2="36.06" y2="56.42"/><line class="cls-5" x1="41.84" y1="57.62" x2="49.03" y2="59.14"/><line class="cls-5" x1="23.2" y1="58.38" x2="48.03" y2="63.5"/><line class="cls-5" x1="22.29" y1="63.07" x2="28.29" y2="64.31"/><line class="cls-5" x1="40.44" y1="31.72" x2="40.44" y2="36.02"/><path class="cls-5" d="M41.72,41.83A4.77,4.77,0,0,1,37,37.07V28.38a4.8,4.8,0,0,1,4.76-4.76,4.8,4.8,0,0,1,4.76,4.76"/><g class="cls-6"><polygon class="cls-7" points="123.69 8.76 116.81 40.16 109.95 29.15 123.69 8.76"/></g><line class="cls-8" x1="116.81" y1="40.16" x2="123.69" y2="8.76"/><line class="cls-8" x1="96.91" y1="26.4" x2="123.69" y2="8.76"/><line class="cls-8" x1="109.95" y1="29.15" x2="123.69" y2="8.76"/><line class="cls-8" x1="96.91" y1="26.4" x2="109.95" y2="29.15"/><line class="cls-8" x1="116.81" y1="40.16" x2="109.95" y2="29.15"/><path class="cls-9" d="M67.8,46.14c6.7-3.64,15-1.71,22.13,1a8.93,8.93,0,0,1,3.49,2c1,1.11,3.21,4.1,3.58,5.57a10.73,10.73,0,0,1-.76,8.07,8.92,8.92,0,0,1-3.54,3.4,12.66,12.66,0,0,1-10.51.73,9,9,0,0,1-5.67-7.81c-.1-4.05,2.83-7.53,5.92-10.16a20.4,20.4,0,0,1,3.42-2.43C88.68,45,91.94,44.62,95,43.62c5.72-1.86,10.77-6.2,12.73-11.89"/><path class="cls-9" d="M12.16,48.93c-4.11,1.66-7,5.43-8.89,9.45C1.32,62.57.94,67.66.77,72.08a26.36,26.36,0,0,0,2.47,11.8c1.79,4,5.43,7,9.38,8.93A31,31,0,0,0,25.1,96a10.6,10.6,0,0,0,4.65-.63A11.84,11.84,0,0,0,33,93.08a82.16,82.16,0,0,1,9.41-7.33c3.63-2.43,12.5-2,15.69.37"/><path d="M25.12,2.35a7.17,7.17,0,0,1,.72-.74A6.41,6.41,0,0,1,26.71,1,5.77,5.77,0,0,1,27.77.44,6.65,6.65,0,0,1,29.05.12a5.76,5.76,0,0,1,1.76,0,4.14,4.14,0,0,1,1.44.54,3.44,3.44,0,0,1,1,1,3.78,3.78,0,0,1,.53,1.49,3.78,3.78,0,0,1,0,1.47,4.1,4.1,0,0,1-.44,1.14,4.61,4.61,0,0,1-.67.89L32,7.42a7.87,7.87,0,0,0-.57.67,1.1,1.1,0,0,0-.24.67v1.63l-1.84.27-.45-1.74a1.51,1.51,0,0,1,0-.92,3,3,0,0,1,.46-.79,8,8,0,0,1,.7-.74,6.41,6.41,0,0,0,.71-.77,3.64,3.64,0,0,0,.52-.89,2.07,2.07,0,0,0,.1-1.09A1.78,1.78,0,0,0,31.11,3a1.69,1.69,0,0,0-.49-.47,1.84,1.84,0,0,0-.68-.25,2.75,2.75,0,0,0-.81,0,3.55,3.55,0,0,0-1,.29,4.63,4.63,0,0,0-.69.42L27,3.41a.72.72,0,0,1-.35.19A.59.59,0,0,1,26,3.36Zm4,12.5a1.84,1.84,0,0,1,0-.66,1.5,1.5,0,0,1,.27-.57,1.72,1.72,0,0,1,.46-.43,2,2,0,0,1,.64-.23,1.62,1.62,0,0,1,.66,0,1.47,1.47,0,0,1,.58.27,1.62,1.62,0,0,1,.43.47,1.59,1.59,0,0,1,.23.62,1.81,1.81,0,0,1,0,.66,1.52,1.52,0,0,1-.28.57,1.58,1.58,0,0,1-.47.42,1.7,1.7,0,0,1-.63.23,1.88,1.88,0,0,1-.67,0,1.53,1.53,0,0,1-1-.73A1.58,1.58,0,0,1,29.11,14.85Z"/><line class="cls-8" x1="8.57" y1="146.53" x2="44.55" y2="146.53"/><line class="cls-8" x1="15.83" y1="151.92" x2="37.53" y2="151.92"/><line class="cls-8" x1="10.23" y1="127.17" x2="42.98" y2="127.17"/><line class="cls-8" x1="42.98" y1="127.17" x2="37.53" y2="146.53"/><line class="cls-8" x1="10.23" y1="127.17" x2="15.43" y2="146.53"/><path class="cls-8" d="M26.25,124.75a6.4,6.4,0,0,1-2-2.41,3.93,3.93,0,0,1,.74-4.08c1-1.09,2.67-1.58,3.38-2.89a4.32,4.32,0,0,0,.41-2,4.54,4.54,0,0,0-.18-1.42,4.32,4.32,0,0,0-1.5-2,8.74,8.74,0,0,0-2.72-1.51"/><path class="cls-8" d="M32.65,124.7a4.7,4.7,0,0,1-2-1.84,3.26,3.26,0,0,1-.26-2.64c.6-1.64,2.61-2.43,3.25-4.06a2.9,2.9,0,0,0,0-2.09"/><path class="cls-8" d="M19.74,124.75a4.59,4.59,0,0,1-2-1.84,3.26,3.26,0,0,1-.26-2.64c.6-1.64,2.61-2.43,3.25-4.06a2.9,2.9,0,0,0,0-2.09"/><line class="cls-8" x1="44.9" y1="130.71" x2="42.15" y2="140.75"/><line class="cls-8" x1="47.92" y1="130.71" x2="45.9" y2="138.38"/><line class="cls-8" x1="50.23" y1="132.07" x2="49.09" y2="137.05"/></g></g></svg>