<svg xmlns="http://www.w3.org/2000/svg" viewBox="0 0 140.53 135.31"><defs><style>.cls-1{fill:#1869ff;opacity:0.8;}.cls-2{fill:#fff;}.cls-3{fill:#ebeced;}.cls-4{fill:none;stroke:#000;stroke-linecap:round;stroke-linejoin:round;stroke-width:2px;}</style></defs><title>icon-develop</title><g id="Layer_2" data-name="Layer 2"><g id="ар_1" data-name="ар 1"><path class="cls-1" d="M27.06,88.4a4.5,4.5,0,1,1-4.5,4.5A4.5,4.5,0,0,1,27.06,88.4Z"/><path d="M32.17,55.34a6.57,6.57,0,0,1-2.61.55,7,7,0,0,1-2.49-.49,6.69,6.69,0,0,1-3.64-3.58A6.64,6.64,0,0,1,27,43.09a6.66,6.66,0,0,1,8.73,3.51,6.67,6.67,0,0,1-3.52,8.74Zm-7-4.24a4.83,4.83,0,1,0,4.42-6.7,4.92,4.92,0,0,0-1.87.38,4.86,4.86,0,0,0-2.59,2.64A4.79,4.79,0,0,0,25.13,51.1Z"/><path d="M27.06,86.55a6.35,6.35,0,1,1-6.35,6.35A6.34,6.34,0,0,1,27.06,86.55Zm0,1.85a4.5,4.5,0,1,0,4.49,4.5A4.5,4.5,0,0,0,27.06,88.4Z"/><path class="cls-2" d="M27.06,103.94a11,11,0,1,0-11-11A11.06,11.06,0,0,0,27.06,103.94Zm-8.6,12.8a3.6,3.6,0,0,1-2.79-.14,3.67,3.67,0,0,1-1.74-4.88l.82-1.68-.6-.46a21.38,21.38,0,0,1-5.24-5.93L8.53,103l-1.84.63a3.54,3.54,0,0,1-2.78-.17,3.6,3.6,0,0,1-1.86-2.1,3.66,3.66,0,0,1,2.26-4.64l1.88-.65-.08-.74A20.44,20.44,0,0,1,6,92.9a21.1,21.1,0,0,1,.53-4.67l.17-.73-1.87-.86a3.65,3.65,0,1,1,3-6.65l1.91.87.45-.6A20.92,20.92,0,0,1,15.89,75l.62-.39-.73-2a3.66,3.66,0,0,1,6.88-2.5l.73,2,.74-.1a21,21,0,0,1,7.72.35l.73.17.91-1.91a3.66,3.66,0,0,1,4.87-1.73,3.65,3.65,0,0,1,1.73,4.86l-.89,1.88.59.46A21,21,0,0,1,45,81.87l.39.63,1.9-.65A3.65,3.65,0,0,1,52,84.11a3.67,3.67,0,0,1-2.26,4.65l-1.85.63.11.75a22,22,0,0,1,.17,2.76,21.43,21.43,0,0,1-.46,4.43l-.16.73,1.72.78a3.63,3.63,0,0,1,1.9,2,3.67,3.67,0,0,1-.09,2.8,3.52,3.52,0,0,1-2.05,1.9,3.65,3.65,0,0,1-2.79-.08l-1.68-.77-.44.61a21.09,21.09,0,0,1-5.84,5.42l-.64.41.62,1.7a3.64,3.64,0,0,1-5,4.56,3.54,3.54,0,0,1-1.88-2.06l-.62-1.69-.75.1a20.18,20.18,0,0,1-8-.4l-.73-.16-.78,1.64A3.65,3.65,0,0,1,18.46,116.74Z"/><path d="M36.25,92.9a9.19,9.19,0,1,0-9.19,9.19A9.2,9.2,0,0,0,36.25,92.9Zm-9.19-11a11,11,0,1,1-11,11A11.06,11.06,0,0,1,27.06,81.86Z"/><path d="M42.38,51.14a1.68,1.68,0,0,0,.08-3.36l-1.38,0L40.93,47a11.06,11.06,0,0,0-1.41-3.69l-.38-.65,1.08-1a1.68,1.68,0,0,0,.53-1.15,1.63,1.63,0,0,0-.42-1.22,1.66,1.66,0,0,0-1.17-.55,1.59,1.59,0,0,0-1.19.44l-1.1,1-.6-.44A11.8,11.8,0,0,0,32.38,38l-.73-.17.06-1.5a1.74,1.74,0,0,0-.44-1.21A1.68,1.68,0,0,0,28.9,35a1.69,1.69,0,0,0-.54,1.17l-.06,1.51-.74.13a11.88,11.88,0,0,0-2.53.76,11.46,11.46,0,0,0-1.44.73l-.63.38-1.05-1.12A1.68,1.68,0,0,0,20.74,38a1.84,1.84,0,0,0-1.21.45,1.7,1.7,0,0,0-.08,2.37L20.5,42l-.42.61a11.87,11.87,0,0,0-1.77,3.88l-.17.72-1.5,0a1.64,1.64,0,0,0-1.72,1.64,1.69,1.69,0,0,0,1.63,1.72l1.49,0,.14.74a11,11,0,0,0,.73,2.47,10.2,10.2,0,0,0,.6,1.19l.37.64-1.08,1a1.68,1.68,0,0,0,1,2.92A1.61,1.61,0,0,0,21.05,59l1.05-.95.6.46a11.94,11.94,0,0,0,3.93,1.86l.72.19L27.29,62a1.68,1.68,0,0,0,1.61,1.75H29a1.67,1.67,0,0,0,1.67-1.6l.06-1.36.74-.13a11.12,11.12,0,0,0,2.66-.77,13,13,0,0,0,1.44-.73l.63-.4.94,1a1.67,1.67,0,1,0,2.44-2.29l-.92-1,.42-.62a11.63,11.63,0,0,0,1.79-4L41,51.1ZM41.7,38.23a3.5,3.5,0,0,1,.9,2.55,3.54,3.54,0,0,1-1.11,2.41c.15.29.29.6.42.89a15,15,0,0,1,.67,2,3.52,3.52,0,0,1-.14,7A13.24,13.24,0,0,1,41,56.39a3.53,3.53,0,0,1-.26,4.89,3.41,3.41,0,0,1-2.52.94,3.49,3.49,0,0,1-2.37-1,10.84,10.84,0,0,1-1,.5,12.39,12.39,0,0,1-2.33.74A3.52,3.52,0,0,1,29,65.7h-.15a3.53,3.53,0,0,1-3.38-3.58,13.26,13.26,0,0,1-3.2-1.53,3.52,3.52,0,0,1-4.68-5.25c-.13-.25-.24-.5-.35-.73a15.61,15.61,0,0,1-.7-2.13H15.38a1.32,1.32,0,0,1-1-.41c-2.86-3.16-.7-6.65,2.27-6.63h.06a12.51,12.51,0,0,1,1.41-3.15l-.33-.36a1.5,1.5,0,0,1-.26-.36,3.65,3.65,0,0,1,.72-4.31,3.5,3.5,0,0,1,2.52-.93,3.43,3.43,0,0,1,2.46,1.12l0,0c.35-.17.67-.34,1-.48a13.53,13.53,0,0,1,2.21-.71l0-.53a1.33,1.33,0,0,1,.09-.44,3.63,3.63,0,0,1,3.55-2.47A3.53,3.53,0,0,1,32.63,34a3.48,3.48,0,0,1,.92,2.52v0A13.68,13.68,0,0,1,36.73,38h0a3.55,3.55,0,0,1,2.53-.89A3.49,3.49,0,0,1,41.7,38.23Z"/><path d="M39.15,67.21a5.53,5.53,0,0,1,2.61,7.34l-.26.52a22.71,22.71,0,0,1,4.72,5.21l.52-.18a5.51,5.51,0,0,1,3.59,10.41l-.45.15A19,19,0,0,1,50,92.9,23.48,23.48,0,0,1,49.63,97l.38.17a5.5,5.5,0,1,1-4.56,10l-.32-.15a22.76,22.76,0,0,1-5.27,4.91l.12.31a5.52,5.52,0,0,1-3.3,7.06,5.42,5.42,0,0,1-1.87.33,5.64,5.64,0,0,1-2.33-.52A5.43,5.43,0,0,1,29.64,116l-.11-.29a22.89,22.89,0,0,1-7.17-.36l-.15.31a5.53,5.53,0,0,1-7.32,2.61,5.51,5.51,0,0,1-2.62-7.33l.17-.36a23.06,23.06,0,0,1-4.73-5.36l-.41.15A5.5,5.5,0,1,1,3.7,95l.51-.17c-.06-.66-.1-1.28-.1-1.91a23.74,23.74,0,0,1,.42-4.35L4,88.32a5.5,5.5,0,0,1,4.56-10l.57.26a22.51,22.51,0,0,1,5.13-4.7l-.23-.62A5.51,5.51,0,0,1,24.4,69.47l.22.61a22.87,22.87,0,0,1,6.92.32l.27-.58A5.54,5.54,0,0,1,39.15,67.21Zm-.89,43.55a21.09,21.09,0,0,0,5.84-5.42l.44-.61,1.68.77a3.65,3.65,0,0,0,2.79.08,3.52,3.52,0,0,0,2.05-1.9,3.67,3.67,0,0,0,.09-2.8,3.63,3.63,0,0,0-1.9-2l-1.72-.78.16-.73a21.43,21.43,0,0,0,.46-4.43A22,22,0,0,0,48,90.14l-.11-.75,1.85-.63A3.67,3.67,0,0,0,52,84.11a3.65,3.65,0,0,0-4.65-2.26l-1.9.65L45,81.87a21,21,0,0,0-5.25-5.78l-.59-.46.89-1.88a3.65,3.65,0,0,0-1.73-4.86,3.66,3.66,0,0,0-4.87,1.73l-.91,1.91-.73-.17A21,21,0,0,0,24.13,72l-.74.1-.73-2a3.66,3.66,0,0,0-6.88,2.5l.73,2-.62.39a20.92,20.92,0,0,0-5.72,5.25l-.45.6L7.81,80a3.65,3.65,0,1,0-3,6.65l1.87.86-.17.73A21.1,21.1,0,0,0,6,92.9a20.44,20.44,0,0,0,.15,2.43l.08.74-1.88.65a3.66,3.66,0,0,0-2.26,4.64,3.6,3.6,0,0,0,1.86,2.1,3.54,3.54,0,0,0,2.78.17L8.53,103l.38.65a21.38,21.38,0,0,0,5.24,5.93l.6.46-.82,1.68a3.67,3.67,0,0,0,1.74,4.88,3.6,3.6,0,0,0,2.79.14,3.65,3.65,0,0,0,2.09-1.88l.78-1.64.73.16a20.18,20.18,0,0,0,8,.4l.75-.1.62,1.69a3.54,3.54,0,0,0,1.88,2.06,3.65,3.65,0,0,0,5-4.56l-.62-1.7Z"/><circle class="cls-3" cx="75.27" cy="70.69" r="44.67"/><path d="M45.57,86.73h18.9a.88.88,0,1,0,0-1.73H45.57a.88.88,0,1,0,0,1.73Z"/><path d="M72,86.73h6A.88.88,0,1,0,78,85H72a.88.88,0,1,0,0,1.73Z"/><path d="M81.38,86.73h19a.88.88,0,1,0,0-1.73h-19a.88.88,0,1,0,0,1.73Z"/><path d="M132,90.2H56.54a.87.87,0,1,1,0-1.73H132a.87.87,0,1,1,0,1.73Z"/><path d="M46.91,66.61a2.17,2.17,0,1,1-2.58,1.66A2.17,2.17,0,0,1,46.91,66.61Z"/><path d="M48,61.52a2.17,2.17,0,1,1-2.58,1.66A2.18,2.18,0,0,1,48,61.52Z"/><path d="M49.29,55.59a2.17,2.17,0,1,1-2.58,1.66A2.17,2.17,0,0,1,49.29,55.59Z"/><path d="M50.39,50.5a2.17,2.17,0,1,1-2.58,1.66A2.17,2.17,0,0,1,50.39,50.5Z"/><path d="M134.83,80.85a5.7,5.7,0,1,1,5.7-5.7A5.71,5.71,0,0,1,134.83,80.85Zm0-9.66a4,4,0,1,0,4,4A4,4,0,0,0,134.83,71.19Z"/><path d="M53,131.25l-3.34-4.78-5.83,0,3.52-4.66-1.84-5.54L51,118.22l4.7-3.46-.11,5.84,4.74,3.4-5.58,1.69ZM50.52,125l1.93,2.76,1-3.21,3.22-1-2.74-2,.07-3.37-2.72,2-3.19-1.1,1.07,3.2-2,2.69Z"/><path d="M111.25,16.49l-3.33-4.79-5.84,0,3.52-4.65-1.84-5.54,5.52,1.91L114,0l-.11,5.83,4.74,3.4L113,10.93Zm-2.48-6.25L110.7,13l1-3.21,3.23-1-2.74-2,.06-3.37-2.72,2-3.18-1.1,1.06,3.2-2,2.69Z"/><path d="M45.75,6.86A6.68,6.68,0,0,1,46.13,6a5.22,5.22,0,0,1,.55-.86,5.86,5.86,0,0,1,1.77-1.49A5.15,5.15,0,0,1,50,3.05a3.92,3.92,0,0,1,1.45,0,3.26,3.26,0,0,1,1.24.57,3.52,3.52,0,0,1,1,1.12A4,4,0,0,1,54.09,6a3.93,3.93,0,0,1,0,1.14,4,4,0,0,1-.3,1l-.38.88a4.85,4.85,0,0,0-.28.77,1,1,0,0,0,0,.66l.52,1.43-1.51.84-1-1.37a1.36,1.36,0,0,1-.29-.81A2.74,2.74,0,0,1,51,9.73a7.2,7.2,0,0,1,.37-.88,7.22,7.22,0,0,0,.37-.91A3.37,3.37,0,0,0,51.92,7a2,2,0,0,0-.28-1,1.57,1.57,0,0,0-.44-.51,1.51,1.51,0,0,0-.58-.25,1.68,1.68,0,0,0-.67,0,2.27,2.27,0,0,0-.71.26,3.33,3.33,0,0,0-.8.6A3.63,3.63,0,0,0,48,6.7l-.28.48a.65.65,0,0,1-.24.29.56.56,0,0,1-.61,0Zm7.59,9.62a1.41,1.41,0,0,1-.19-.59,1.31,1.31,0,0,1,0-.59,1.62,1.62,0,0,1,.74-.93,1.5,1.5,0,0,1,.6-.19,1.47,1.47,0,0,1,.59.05,1.48,1.48,0,0,1,.93.73,1.46,1.46,0,0,1,.19.59,1.63,1.63,0,0,1-.05.59,1.72,1.72,0,0,1-.27.52,1.59,1.59,0,0,1-.48.41,1.63,1.63,0,0,1-.59.19,1.44,1.44,0,0,1-.59,0,1.36,1.36,0,0,1-.52-.27A1.41,1.41,0,0,1,53.34,16.48Z"/><path d="M120.41,96.32a7.54,7.54,0,0,1,.83-.49,5.63,5.63,0,0,1,2-.57,6.43,6.43,0,0,1,1.23,0,5.39,5.39,0,0,1,1.58.44,3.79,3.79,0,0,1,1.16.85,3.21,3.21,0,0,1,.68,1.19,4,4,0,0,1-.28,2.79,3.55,3.55,0,0,1-.68.91,4.44,4.44,0,0,1-.82.64l-.83.48a4.73,4.73,0,0,0-.68.46,1,1,0,0,0-.38.54l-.42,1.46-1.72-.21,0-1.68a1.37,1.37,0,0,1,.24-.82,2.32,2.32,0,0,1,.61-.6,6.2,6.2,0,0,1,.81-.49,6.43,6.43,0,0,0,.83-.52,2.93,2.93,0,0,0,.69-.67,2,2,0,0,0,.36-1,1.52,1.52,0,0,0-.06-.68,1.64,1.64,0,0,0-.32-.54,1.9,1.9,0,0,0-.55-.4,2.73,2.73,0,0,0-.72-.2,3.65,3.65,0,0,0-1,0,3.08,3.08,0,0,0-.72.21l-.51.22a.68.68,0,0,1-.36.09.55.55,0,0,1-.49-.37Zm.48,12.24a1.52,1.52,0,0,1,.19-.59,1.38,1.38,0,0,1,.38-.45,1.59,1.59,0,0,1,.52-.26,1.61,1.61,0,0,1,1.22.14,1.71,1.71,0,0,1,.45.39,1.56,1.56,0,0,1,.27.53,1.4,1.4,0,0,1,0,.61,1.42,1.42,0,0,1-.19.59,1.71,1.71,0,0,1-.39.45,1.46,1.46,0,0,1-.53.26,1.43,1.43,0,0,1-.62,0,1.51,1.51,0,0,1-.6-.19,1.38,1.38,0,0,1-.45-.38,1.5,1.5,0,0,1-.26-.52A1.6,1.6,0,0,1,120.89,108.56Z"/><polygon class="cls-2" points="85.73 15.99 98.06 18.77 124.06 24.67 123.14 28.74 111.78 78.32 110.34 84.58 80.86 78.16 58.58 73.3 58.58 73.28 50.62 71.55 63.75 11 85.73 15.99"/><polygon class="cls-1" points="123.33 28.79 123.33 78.32 111.78 78.32 123.14 28.74 123.33 28.79"/><polygon class="cls-1" points="80.86 78.16 80.83 78.32 58.58 78.32 58.58 73.3 80.86 78.16"/><polyline class="cls-4" points="63.75 11 85.73 15.99 98.06 18.77 124.06 24.67"/><polyline class="cls-4" points="110.34 84.58 111.78 78.32 123.14 28.74 124.06 24.67"/><line class="cls-4" x1="50.62" y1="71.55" x2="63.75" y2="11"/><line class="cls-4" x1="58.58" y1="73.28" x2="50.62" y2="71.55"/><polyline class="cls-4" points="110.34 84.58 80.86 78.16 58.58 73.3"/><line class="cls-4" x1="58.58" y1="78.32" x2="80.82" y2="78.32"/><polyline class="cls-4" points="58.58 73.28 58.58 73.3 58.58 78.32"/><line class="cls-4" x1="111.78" y1="78.32" x2="123.33" y2="78.32"/><line class="cls-4" x1="123.33" y1="78.32" x2="123.33" y2="28.78"/><line class="cls-4" x1="68.32" y1="52.36" x2="84.18" y2="55.86"/><line class="cls-4" x1="91.96" y1="57.48" x2="101.67" y2="59.53"/><line class="cls-4" x1="66.81" y1="58.5" x2="100.32" y2="65.42"/><line class="cls-4" x1="65.61" y1="64.83" x2="73.69" y2="66.51"/><line class="cls-4" x1="90.08" y1="22.54" x2="90.08" y2="28.36"/><path class="cls-4" d="M91.8,36.18a6.43,6.43,0,0,1-6.42-6.41V18a6,6,0,0,1,.35-2,6.41,6.41,0,0,1,12.49,2"/><path class="cls-2" d="M99.07,124.36c.53,0,1.05,0,1.58,0a9.8,9.8,0,0,0,1.33-.09,9.45,9.45,0,0,0,1.16-.31,6,6,0,0,0,1.66-.71,3.2,3.2,0,0,0,1.13-1.53l.23.09a11.81,11.81,0,0,0,4.15-.23,7.11,7.11,0,0,0,2-.9l.12.17a4.83,4.83,0,0,1,.46,4.86,3.12,3.12,0,0,1-.52.78,5,5,0,0,1-1.8,1.07,10.51,10.51,0,0,1-2,.43,16.45,16.45,0,0,1-5-.41,8.89,8.89,0,0,1-1-.38,7.86,7.86,0,0,1-2.37-1.64,6.28,6.28,0,0,0-1.2-1.1Z"/><path class="cls-2" d="M100.26,125.59a7.86,7.86,0,0,0,2.37,1.64l0,.08a2.31,2.31,0,0,0-1.92,2,6.66,6.66,0,0,0,.24,1.76,2.86,2.86,0,0,1-.7,2.8,2.36,2.36,0,0,1-2.72-.07,6.48,6.48,0,0,1-1.84-2.24,53.86,53.86,0,0,0-4.38-7.17,4.77,4.77,0,0,0-1.89-1.57,5.34,5.34,0,0,0-2.15-.14,11.3,11.3,0,0,0,1.54-.43,5.07,5.07,0,0,0,1.54-.82,6.74,6.74,0,0,0,1.15-1.35,5.08,5.08,0,0,0,.27-.43l.07,0a6.94,6.94,0,0,0,4,4,10.27,10.27,0,0,0,3.31.67v.13A6.28,6.28,0,0,1,100.26,125.59Z"/><path class="cls-2" d="M105.93,121.75a3.2,3.2,0,0,1-1.13,1.53,6,6,0,0,1-1.66.71,9.45,9.45,0,0,1-1.16.31,9.8,9.8,0,0,1-1.33.09c-.53,0-1.05,0-1.58,0a10.27,10.27,0,0,1-3.31-.67,6.94,6.94,0,0,1-4-4l-.07,0a5.08,5.08,0,0,1-.27.43,6.74,6.74,0,0,1-1.15,1.35,5.07,5.07,0,0,1-1.54.82,11.3,11.3,0,0,1-1.54.43h0a15.8,15.8,0,0,1-2.92.29,27.84,27.84,0,0,1-2.87-.27,9.58,9.58,0,0,1-6.14-3.59l-.09-.08A5.28,5.28,0,0,0,76,117.8a10.1,10.1,0,0,0,.63-2.14l.14-.11a4.83,4.83,0,0,1-.88-2.1l-.22,0c0,.28-.36.44-.65.51a6.41,6.41,0,0,1-6.65-1.38,8.75,8.75,0,0,1-1.72-2.5A5.36,5.36,0,0,1,69,103.61c.35-.2.69-.43,1.06-.61a19.64,19.64,0,0,1,4-1.65l.3-.06a3.93,3.93,0,0,1-.16-4.11c1.57-3.3,7.55-2.18,8.37-2a3.8,3.8,0,0,1,2,1l.15-.14c.11-1.09-.16-2.17,2.42-2.9a12.29,12.29,0,0,1,4.24-.22,4.67,4.67,0,0,1,3.12,2,4,4,0,0,1,.59,1.57l.21,0a3,3,0,0,1,1.08-1.09,7.21,7.21,0,0,1,5.38-1,8.73,8.73,0,0,1,2.07.71A6.63,6.63,0,0,1,107,97.8a5.81,5.81,0,0,1,.56,2h.11a14.79,14.79,0,0,1,4.08,1.8,9,9,0,0,1,3.14,3.31,5.24,5.24,0,0,1,.51,1.4,6.68,6.68,0,0,1,0,1.73,6.8,6.8,0,0,1-1.26,3.59,4.16,4.16,0,0,1-1.32,1.11l.19.07a7.06,7.06,0,0,1,1.47,4.28,3.5,3.5,0,0,1-.75,2.43,5.46,5.46,0,0,1-1.38,1.24,7.11,7.11,0,0,1-2,.9,11.81,11.81,0,0,1-4.15.23Z"/><path class="cls-2" d="M68.34,112.63A6.41,6.41,0,0,0,75,114c.29-.07.61-.23.65-.51l.22,0a4.83,4.83,0,0,0,.88,2.1l-.14.11A10.1,10.1,0,0,1,76,117.8a5.28,5.28,0,0,1-.76,1.27,2.75,2.75,0,0,1-.46.44,7.29,7.29,0,0,1-2.17,1,4.48,4.48,0,0,1-1.59-.07,6.26,6.26,0,0,1-1-.27,7.15,7.15,0,0,1-1.68-1,4.11,4.11,0,0,1-.72-.95c-.16-.42-.3-.84-.43-1.28a5.33,5.33,0,0,1-.3-1.52A3.44,3.44,0,0,1,68.34,112.63Z"/><path class="cls-4" d="M82.73,104a8.38,8.38,0,0,1-6-.47,6,6,0,0,1-2.33-2.2,3.93,3.93,0,0,1-.16-4.11c1.57-3.3,7.55-2.18,8.37-2a3.8,3.8,0,0,1,2,1l.15.17"/><path class="cls-4" d="M84.75,96.05c.11-1.09-.16-2.17,2.42-2.9a12.29,12.29,0,0,1,4.24-.22,4.67,4.67,0,0,1,3.12,2,4,4,0,0,1,.59,1.57,3.85,3.85,0,0,1-.15,2,1.76,1.76,0,0,1-.83,1.07,2.32,2.32,0,0,1-.79.16c-1.6.12-3.38-.08-4.47-1.19"/><path class="cls-4" d="M83.33,98.44c-1.83,1.14-.76,4.07-.42,4.83a3.94,3.94,0,0,0,3.15,2,5.87,5.87,0,0,0,5.72-2.74"/><path class="cls-4" d="M74.12,101.35a19.64,19.64,0,0,0-4,1.65c-.37.18-.71.41-1.06.61a5.36,5.36,0,0,0-2.42,6.52,8.75,8.75,0,0,0,1.72,2.5A6.41,6.41,0,0,0,75,114c.29-.07.61-.23.65-.51"/><path class="cls-4" d="M78.28,107.12a6.23,6.23,0,0,0-1.84,2.42,6.13,6.13,0,0,0-.58,3.91,4.83,4.83,0,0,0,.88,2.1,4.29,4.29,0,0,0,2.19,1.58c.92.21,4.62,1.56,6.59-2.4"/><path class="cls-4" d="M68.44,112.56l-.1.07a3.44,3.44,0,0,0-1.47,2.83,5.33,5.33,0,0,0,.3,1.52c.13.44.27.86.43,1.28a4.11,4.11,0,0,0,.72.95,7.15,7.15,0,0,0,1.68,1,6.26,6.26,0,0,0,1,.27,4.48,4.48,0,0,0,1.59.07,7.29,7.29,0,0,0,2.17-1,2.75,2.75,0,0,0,.46-.44A5.28,5.28,0,0,0,76,117.8a10.1,10.1,0,0,0,.63-2.14"/><path class="cls-4" d="M87.23,122.72a15.8,15.8,0,0,1-2.92.29,27.84,27.84,0,0,1-2.87-.27,9.58,9.58,0,0,1-6.14-3.59"/><path class="cls-4" d="M83.32,111.81a7.31,7.31,0,0,1,2.15-.69A6.05,6.05,0,0,1,91,113a6.83,6.83,0,0,1,1.34,3.84,4.51,4.51,0,0,1-.14,1.9,4,4,0,0,1-.46.93,5.08,5.08,0,0,1-.27.43,6.74,6.74,0,0,1-1.15,1.35,5.07,5.07,0,0,1-1.54.82,11.3,11.3,0,0,1-1.54.43"/><path class="cls-4" d="M98.26,116.69a9,9,0,0,0,2.31.32,2.69,2.69,0,0,0,.75-.06,3,3,0,0,0,.81-.39,3.16,3.16,0,0,0,1.32-1.15,2.18,2.18,0,0,0,.18-.65,6.56,6.56,0,0,0-1.16-3.72"/><path class="cls-4" d="M92.88,108a1.62,1.62,0,0,1,1-1.31,3.57,3.57,0,0,1,1.78-.18,3.37,3.37,0,0,1,2.68,1.54,3.6,3.6,0,0,1,.27,1.56c.08,3.32-3.43,2.7-4,2.53s-1.34-.52-2-.77c-.49-.19-1-.34-1.47-.48a13.65,13.65,0,0,0-2.53-.5,5.38,5.38,0,0,0-2.52.4"/><path class="cls-4" d="M91.81,119.73a6.94,6.94,0,0,0,4,4,10.27,10.27,0,0,0,3.31.67c.53,0,1.05,0,1.58,0a9.8,9.8,0,0,0,1.33-.09,9.45,9.45,0,0,0,1.16-.31,6,6,0,0,0,1.66-.71,3.2,3.2,0,0,0,1.13-1.53,5.28,5.28,0,0,0,.32-1.36,3,3,0,0,0,0-.79,2.88,2.88,0,0,0-.49-1,9.34,9.34,0,0,0-2.64-2.6"/><path class="cls-4" d="M101.3,105.57a4.88,4.88,0,0,0,2.28,2.53,3.36,3.36,0,0,0,1.15.22,4.83,4.83,0,0,0,2-.16,4.5,4.5,0,0,0,.78-.42,4.44,4.44,0,0,0,.84-.6,3.36,3.36,0,0,0,.58-.85,4.24,4.24,0,0,0,.44-1.05,4.56,4.56,0,0,0,0-1.38"/><path class="cls-4" d="M95.33,96.49a3,3,0,0,1,1.08-1.09,7.21,7.21,0,0,1,5.38-1,8.73,8.73,0,0,1,2.07.71A6.63,6.63,0,0,1,107,97.8a5.81,5.81,0,0,1,.56,2c.07.5.1,1,.12,1.51"/><path class="cls-4" d="M105.67,108.4a3,3,0,0,0,.3,1.45,6.92,6.92,0,0,0,1,1.61c1.06,1.3,3.34,1.57,3.62,1.62a3.43,3.43,0,0,0,2.2-.39,4.16,4.16,0,0,0,1.32-1.11,6.8,6.8,0,0,0,1.26-3.59,6.68,6.68,0,0,0,0-1.73,5.24,5.24,0,0,0-.51-1.4,9,9,0,0,0-3.14-3.31,14.79,14.79,0,0,0-4.08-1.8"/><path class="cls-4" d="M99.06,124.49a6.28,6.28,0,0,1,1.2,1.1,7.86,7.86,0,0,0,2.37,1.64,8.89,8.89,0,0,0,1,.38,16.45,16.45,0,0,0,5,.41,10.51,10.51,0,0,0,2-.43,5,5,0,0,0,1.8-1.07,3.12,3.12,0,0,0,.52-.78,4.83,4.83,0,0,0-.46-4.86"/><path class="cls-4" d="M113,112.76a7.06,7.06,0,0,1,1.47,4.28,3.5,3.5,0,0,1-.75,2.43,5.46,5.46,0,0,1-1.38,1.24,7.11,7.11,0,0,1-2,.9,11.81,11.81,0,0,1-4.15.23"/><path class="cls-4" d="M87.23,122.72h0a5.34,5.34,0,0,1,2.15.14,4.77,4.77,0,0,1,1.89,1.57,53.86,53.86,0,0,1,4.38,7.17,6.48,6.48,0,0,0,1.84,2.24,2.36,2.36,0,0,0,2.72.07,2.86,2.86,0,0,0,.7-2.8,6.66,6.66,0,0,1-.24-1.76,2.31,2.31,0,0,1,1.92-2"/><line class="cls-4" x1="57.65" y1="27.08" x2="14.92" y2="27.08"/><line class="cls-4" x1="24.74" y1="23.17" x2="32.11" y2="23.17"/><line class="cls-4" x1="36.67" y1="23.17" x2="40.17" y2="23.17"/><line class="cls-4" x1="43.67" y1="23.17" x2="53.92" y2="23.17"/></g></g></svg>